<svg xmlns="http://www.w3.org/2000/svg" xmlns:xlink="http://www.w3.org/1999/xlink" version="1.1" style="shape-rendering:geometricPrecision; text-rendering:geometricPrecision; image-rendering:optimizeQuality; fill-rule:evenodd; clip-rule:evenodd" viewBox="-0.5 3.54 504.61 504.01">
<g><path style="opacity:0.985" fill="#020100" d="M -0.5,387.5 C -0.5,271.5 -0.5,155.5 -0.5,39.5C 6.08351,30.6818 14.7502,24.5151 25.5,21C 46.7046,14.41 68.3713,10.0767 90.5,8C 159.064,0.701413 227.397,2.36808 295.5,13C 311.315,15.605 326.315,20.605 340.5,28C 345.801,31.2975 349.635,35.7975 352,41.5C 352.167,104.836 352.667,168.169 353.5,231.5C 398.701,243.7 426.035,272.7 435.5,318.5C 470.76,329.263 492.926,352.596 502,388.5C 509.194,428.25 498.028,461.75 468.5,489C 456.196,498.815 442.196,504.815 426.5,507C 331.803,507.986 237.137,507.652 142.5,506C 113.702,497.202 94.8682,478.368 86,449.5C 84.1711,439.218 82.6711,428.884 81.5,418.5C 62.46,416.058 43.7933,411.892 25.5,406C 14.7502,402.485 6.08351,396.318 -0.5,387.5 Z"/></g>
<g><path style="opacity:1" fill="#fce839" d="M 308.5,33.5 C 310.812,35.636 313.312,37.636 316,39.5C 318.846,42.9189 319.18,46.5855 317,50.5C 314.937,52.7341 312.771,54.7341 310.5,56.5C 302.182,59.5795 293.516,61.7461 284.5,63C 221.329,71.4046 157.996,72.738 94.5,67C 72.398,64.862 50.7314,60.5286 29.5,54C 24.2727,52.5641 19.9393,49.8975 16.5,46C 18.1748,43.3151 20.5082,41.3151 23.5,40C 47.4233,31.3483 72.09,26.0149 97.5,24C 146.123,19.7672 194.79,19.4339 243.5,23C 265.382,25.277 287.048,28.777 308.5,33.5 Z"/></g>
<g><path style="opacity:1" fill="#f5d132" d="M 308.5,33.5 C 316.402,35.6346 324.068,38.4679 331.5,42C 332.899,43.0616 333.899,44.395 334.5,46C 327.622,51.9096 319.622,55.4096 310.5,56.5C 312.771,54.7341 314.937,52.7341 317,50.5C 319.18,46.5855 318.846,42.9189 316,39.5C 313.312,37.636 310.812,35.636 308.5,33.5 Z"/></g>
<g><path style="opacity:1" fill="#fdda00" d="M 318.5,72.5 C 318.831,93.3401 318.497,114.007 317.5,134.5C 315.932,131.124 313.265,129.791 309.5,130.5C 286.292,134.818 262.959,138.318 239.5,141C 233.674,144.813 233.008,149.48 237.5,155C 239.366,155.985 241.366,156.485 243.5,156.5C 265.681,154.593 287.681,151.427 309.5,147C 312.684,146.246 315.351,144.746 317.5,142.5C 321.276,153.135 318.276,161.135 308.5,166.5C 303.051,168.635 297.385,170.135 291.5,171C 229.087,180.006 166.421,182.006 103.5,177C 78.331,174.917 53.6644,170.25 29.5,163C 24.6197,161.645 20.453,159.145 17,155.5C 16.3333,125.5 16.3333,95.5 17,65.5C 22.8682,68.6824 29.0349,71.1824 35.5,73C 73.9649,81.9852 112.965,86.6519 152.5,87C 193.336,88.3819 234.003,86.3819 274.5,81C 289.299,78.7402 303.965,75.9068 318.5,72.5 Z"/></g>
<g><path style="opacity:1" fill="#fcc007" d="M 333.5,66.5 C 334.498,95.9953 334.831,125.662 334.5,155.5C 331.744,158.389 328.411,160.556 324.5,162C 319.237,163.815 313.903,165.315 308.5,166.5C 318.276,161.135 321.276,153.135 317.5,142.5C 318.714,139.796 318.714,137.129 317.5,134.5C 318.497,114.007 318.831,93.3401 318.5,72.5C 323.383,70.2259 328.383,68.2259 333.5,66.5 Z"/></g>
<g><path style="opacity:1" fill="#b98c05" d="M 333.5,66.5 C 333.56,65.9569 333.893,65.6236 334.5,65.5C 335.83,95.664 335.83,125.664 334.5,155.5C 334.831,125.662 334.498,95.9953 333.5,66.5 Z"/></g>
<g><path style="opacity:1" fill="#0b0800" d="M 38.5,87.5 C 47.2071,87.0367 50.7071,91.0367 49,99.5C 46.5258,103.319 43.0258,104.819 38.5,104C 33.9315,101.459 32.4315,97.6253 34,92.5C 35.1932,90.5029 36.6932,88.8362 38.5,87.5 Z"/></g>
<g><path style="opacity:1" fill="#020100" d="M 37.5,121.5 C 42.635,120.426 46.4683,122.093 49,126.5C 49.6667,134.167 49.6667,141.833 49,149.5C 46.4586,154.069 42.6253,155.569 37.5,154C 35.9512,152.786 34.7845,151.286 34,149.5C 33.3333,141.5 33.3333,133.5 34,125.5C 35.3756,124.295 36.5423,122.962 37.5,121.5 Z"/></g>
<g><path style="opacity:1" fill="#040300" d="M 317.5,134.5 C 318.714,137.129 318.714,139.796 317.5,142.5C 315.351,144.746 312.684,146.246 309.5,147C 287.681,151.427 265.681,154.593 243.5,156.5C 241.366,156.485 239.366,155.985 237.5,155C 233.008,149.48 233.674,144.813 239.5,141C 262.959,138.318 286.292,134.818 309.5,130.5C 313.265,129.791 315.932,131.124 317.5,134.5 Z"/></g>
<g><path style="opacity:1" fill="#fd9701" d="M 318.5,181.5 C 318.5,198.167 318.5,214.833 318.5,231.5C 306.937,233.91 295.937,237.91 285.5,243.5C 266.389,248.559 250.723,258.892 238.5,274.5C 220.73,273.772 204.73,278.605 190.5,289C 143.395,290.731 96.7286,287.064 50.5,278C 41.5804,276.138 32.9137,273.471 24.5,270C 21.4384,268.939 18.9384,267.106 17,264.5C 16.3333,234.5 16.3333,204.5 17,174.5C 21.5652,177.245 26.3985,179.411 31.5,181C 69.2024,190.449 107.536,195.449 146.5,196C 204.532,198.828 261.865,193.995 318.5,181.5 Z"/></g>
<g><path style="opacity:1" fill="#f37b00" d="M 333.5,175.5 C 334.497,193.659 334.83,211.992 334.5,230.5C 329.155,230.687 323.822,231.02 318.5,231.5C 318.5,214.833 318.5,198.167 318.5,181.5C 323.429,179.519 328.429,177.519 333.5,175.5 Z"/></g>
<g><path style="opacity:1" fill="#b25900" d="M 333.5,175.5 C 333.56,174.957 333.893,174.624 334.5,174.5C 335.828,193.329 335.828,211.996 334.5,230.5C 334.83,211.992 334.497,193.659 333.5,175.5 Z"/></g>
<g><path style="opacity:1" fill="#0b0500" d="M 38.5,196.5 C 46.8652,196.36 50.3652,200.36 49,208.5C 47.4337,211.813 44.7671,213.479 41,213.5C 34.582,212.008 32.2486,208.008 34,201.5C 35.1932,199.503 36.6932,197.836 38.5,196.5 Z"/></g>
<g><path style="opacity:1" fill="#020100" d="M 38.5,230.5 C 43.2797,229.641 46.7797,231.308 49,235.5C 49.6667,243.167 49.6667,250.833 49,258.5C 46.4586,263.069 42.6253,264.569 37.5,263C 36.3333,261.833 35.1667,260.667 34,259.5C 33.3333,251.5 33.3333,243.5 34,235.5C 35.025,233.313 36.525,231.646 38.5,230.5 Z"/></g>
<g><path style="opacity:1" fill="#ef7900" d="M 285.5,243.5 C 272.117,251.38 261.117,261.88 252.5,275C 247.853,275.005 243.186,274.838 238.5,274.5C 250.723,258.892 266.389,248.559 285.5,243.5 Z"/></g>
<g><path style="opacity:1" fill="#02a8f3" d="M 351.5,249.5 C 380.291,266.691 397.458,292.024 403,325.5C 409.238,327.19 415.405,329.19 421.5,331.5C 423.216,333.025 425.216,334.025 427.5,334.5C 460.642,357.482 474.142,389.148 468,429.5C 462.49,455.469 448.657,475.469 426.5,489.5C 334.188,490.657 241.855,490.823 149.5,490C 121.709,482.294 105.543,464.127 101,435.5C 97.6652,400.882 111.832,376.715 143.5,363C 150.546,362.088 157.546,361.088 164.5,360C 165.667,358.833 166.833,357.667 168,356.5C 178.295,306.266 208.795,285.1 259.5,293C 270.429,275.07 285.429,261.737 304.5,253C 319.846,247.167 335.513,246 351.5,249.5 Z"/></g>
<g><path style="opacity:1" fill="#0275b9" d="M 351.5,249.5 C 384.951,258.782 406.784,280.116 417,313.5C 418.397,319.573 419.897,325.573 421.5,331.5C 415.405,329.19 409.238,327.19 403,325.5C 397.458,292.024 380.291,266.691 351.5,249.5 Z"/></g>
<g><path style="opacity:1" fill="#372f00" d="M 17.5,284.5 C 16.5018,316.662 16.1684,348.996 16.5,381.5C 15.17,348.998 15.17,316.331 16.5,283.5C 17.1067,283.624 17.44,283.957 17.5,284.5 Z"/></g>
<g><path style="opacity:1" fill="#fcd900" d="M 17.5,284.5 C 37.5362,291.901 58.2029,297.067 79.5,300C 110.064,303.522 140.731,305.689 171.5,306.5C 163.048,318.07 156.715,330.737 152.5,344.5C 118.728,349.86 97.0618,368.86 87.5,401.5C 66.5638,399.682 46.2304,395.182 26.5,388C 22.5891,386.556 19.2558,384.389 16.5,381.5C 16.1684,348.996 16.5018,316.662 17.5,284.5 Z"/></g>
<g><path style="opacity:1" fill="#050400" d="M 37.5,306.5 C 46.1584,305.327 49.9918,308.994 49,317.5C 45.1081,323.259 40.4414,323.926 35,319.5C 32.4625,314.395 33.2959,310.061 37.5,306.5 Z"/></g>
<g><path style="opacity:1" fill="#0275ba" d="M 427.5,334.5 C 459.03,343.199 478.53,363.532 486,395.5C 490.069,425.624 481.569,451.457 460.5,473C 450.635,481.432 439.302,486.932 426.5,489.5C 448.657,475.469 462.49,455.469 468,429.5C 474.142,389.148 460.642,357.482 427.5,334.5 Z"/></g>
<g><path style="opacity:1" fill="#020100" d="M 38.5,339.5 C 43.1524,338.984 46.6524,340.651 49,344.5C 49.6667,352.167 49.6667,359.833 49,367.5C 46.5647,372.224 42.7314,373.724 37.5,372C 36.3333,370.833 35.1667,369.667 34,368.5C 33.3333,360.5 33.3333,352.5 34,344.5C 35.025,342.313 36.525,340.646 38.5,339.5 Z"/></g>
</svg>