<svg xmlns="http://www.w3.org/2000/svg" xmlns:xlink="http://www.w3.org/1999/xlink" version="1.1" style="shape-rendering:geometricPrecision; text-rendering:geometricPrecision; image-rendering:optimizeQuality; fill-rule:evenodd; clip-rule:evenodd" viewBox="175.85 37.55 334.65 285.95">
<g><path style="opacity:1" fill="#232121" d="M 269.5,38.5 C 271.438,40.1628 273.772,40.8294 276.5,40.5C 280.052,41.2759 283.386,42.6092 286.5,44.5C 287.344,46.7593 289.011,47.7593 291.5,47.5C 293.784,47.9752 295.784,48.9752 297.5,50.5C 297.821,52.0481 298.821,52.7148 300.5,52.5C 301.833,53.1667 303.167,53.8333 304.5,54.5C 307.428,54.4349 310.095,53.7682 312.5,52.5C 316.919,51.0285 321.586,50.3618 326.5,50.5C 337.5,50.5 348.5,50.5 359.5,50.5C 365.828,50.6937 371.995,51.6937 378,53.5C 379.741,52.2423 381.574,51.2423 383.5,50.5C 385.027,50.573 386.027,49.9063 386.5,48.5C 388.849,46.659 391.515,45.3257 394.5,44.5C 395.496,44.4142 396.329,44.7476 397,45.5C 397.317,43.6992 397.984,43.3659 399,44.5C 401.433,42.7025 403.933,41.0358 406.5,39.5C 411.058,37.6804 415.725,37.347 420.5,38.5C 421.127,39.4168 421.461,40.4168 421.5,41.5C 421.259,43.8984 421.926,45.8984 423.5,47.5C 425.582,55.4646 425.915,63.4646 424.5,71.5C 421.346,75.5561 422.013,78.8894 426.5,81.5C 427.5,81.8333 428.167,82.5 428.5,83.5C 428.427,85.0269 429.094,86.0269 430.5,86.5C 432.25,87.6594 433.25,89.326 433.5,91.5C 433.427,93.0269 434.094,94.0269 435.5,94.5C 436.441,96.0495 437.107,97.7162 437.5,99.5C 437.259,101.898 437.926,103.898 439.5,105.5C 441.53,117.389 442.03,129.389 441,141.5C 440.472,145.699 439.639,149.699 438.5,153.5C 437.549,154.919 437.216,156.585 437.5,158.5C 437.107,160.284 436.441,161.95 435.5,163.5C 438.641,164.321 441.975,164.821 445.5,165C 441.644,165.177 437.977,165.677 434.5,166.5C 430.491,175.679 424.157,182.845 415.5,188C 403.936,194.355 391.602,198.188 378.5,199.5C 375.615,199.194 372.948,199.527 370.5,200.5C 352.09,200.18 333.757,200.514 315.5,201.5C 314.082,199.692 312.082,199.025 309.5,199.5C 305.575,199.57 301.909,198.903 298.5,197.5C 295.495,195.723 292.162,194.723 288.5,194.5C 283.777,193.63 279.444,191.964 275.5,189.5C 275.027,188.094 274.027,187.427 272.5,187.5C 270.147,186.66 268.147,185.326 266.5,183.5C 266.027,182.094 265.027,181.427 263.5,181.5C 257.986,177.659 253.986,172.659 251.5,166.5C 248.023,165.677 244.356,165.177 240.5,165C 243.695,164.819 246.695,164.319 249.5,163.5C 248.058,162.18 247.392,160.514 247.5,158.5C 247.33,157.178 247.663,156.011 248.5,155C 247.309,154.302 246.309,153.469 245.5,152.5C 243.238,146.835 242.238,140.835 242.5,134.5C 242.401,125.479 242.734,116.479 243.5,107.5C 244.924,105.485 245.59,103.152 245.5,100.5C 247.563,94.0345 250.896,88.3678 255.5,83.5C 256.906,83.0269 257.573,82.0269 257.5,80.5C 252.776,65.8571 253.776,51.6905 260.5,38C 263.592,37.2642 266.592,37.4309 269.5,38.5 Z"/></g>
<g><path style="opacity:0.851" fill="#858484" d="M 269.5,38.5 C 272.067,38.7215 274.401,39.3882 276.5,40.5C 273.772,40.8294 271.438,40.1628 269.5,38.5 Z"/></g>
<g><path style="opacity:1" fill="#535151" d="M 406.5,39.5 C 403.933,41.0358 401.433,42.7025 399,44.5C 397.984,43.3659 397.317,43.6992 397,45.5C 396.329,44.7476 395.496,44.4142 394.5,44.5C 397.983,41.7633 401.983,40.0966 406.5,39.5 Z"/></g>
<g><path style="opacity:0.867" fill="#969595" d="M 421.5,41.5 C 422.738,43.2143 423.405,45.2143 423.5,47.5C 421.926,45.8984 421.259,43.8984 421.5,41.5 Z"/></g>
<g><path style="opacity:1" fill="#706f6f" d="M 286.5,44.5 C 288.434,45.1103 290.101,46.1103 291.5,47.5C 289.011,47.7593 287.344,46.7593 286.5,44.5 Z"/></g>
<g><path style="opacity:0.795" fill="#878686" d="M 359.5,50.5 C 348.5,50.5 337.5,50.5 326.5,50.5C 331.679,49.7416 337.012,49.0749 342.5,48.5C 348.32,49.0808 353.987,49.7474 359.5,50.5 Z"/></g>
<g><path style="opacity:0.808" fill="#878686" d="M 386.5,48.5 C 386.027,49.9063 385.027,50.573 383.5,50.5C 383.973,49.0937 384.973,48.427 386.5,48.5 Z"/></g>
<g><path style="opacity:0.976" fill="#888686" d="M 297.5,50.5 C 298.71,50.9321 299.71,51.5987 300.5,52.5C 298.821,52.7148 297.821,52.0481 297.5,50.5 Z"/></g>
<g><path style="opacity:0.882" fill="#828181" d="M 312.5,52.5 C 310.095,53.7682 307.428,54.4349 304.5,54.5C 306.838,52.9605 309.505,52.2938 312.5,52.5 Z"/></g>
<g><path style="opacity:0.729" fill="#918f8f" d="M 424.5,71.5 C 424.643,73.2624 424.309,74.9291 423.5,76.5C 424.952,77.9397 425.952,79.6064 426.5,81.5C 422.013,78.8894 421.346,75.5561 424.5,71.5 Z"/></g>
<g><path style="opacity:0.769" fill="#919090" d="M 257.5,80.5 C 257.573,82.0269 256.906,83.0269 255.5,83.5C 255.427,81.9731 256.094,80.9731 257.5,80.5 Z"/></g>
<g><path style="opacity:0.6" fill="#959494" d="M 428.5,83.5 C 429.906,83.9731 430.573,84.9731 430.5,86.5C 429.094,86.0269 428.427,85.0269 428.5,83.5 Z"/></g>
<g><path style="opacity:0.325" fill="#acacac" d="M 433.5,91.5 C 434.906,91.9731 435.573,92.9731 435.5,94.5C 434.094,94.0269 433.427,93.0269 433.5,91.5 Z"/></g>
<g><path style="opacity:0.894" fill="#969595" d="M 437.5,99.5 C 438.738,101.214 439.405,103.214 439.5,105.5C 437.926,103.898 437.259,101.898 437.5,99.5 Z"/></g>
<g><path style="opacity:0.933" fill="#848383" d="M 245.5,100.5 C 245.59,103.152 244.924,105.485 243.5,107.5C 243.41,104.848 244.076,102.515 245.5,100.5 Z"/></g>
<g><path style="opacity:1" fill="#bb9582" d="M 411.5,130.5 C 406.293,124.878 399.959,120.711 392.5,118C 375.623,117.22 358.79,117.72 342,119.5C 325.206,117.754 308.373,117.254 291.5,118C 281.763,121.91 274.429,128.41 269.5,137.5C 276.05,120.486 288.55,112.486 307,113.5C 318.487,114.396 329.987,115.063 341.5,115.5C 356.492,114.429 371.492,113.929 386.5,114C 397.955,115.043 406.289,120.543 411.5,130.5 Z"/></g>
<g><path style="opacity:1" fill="#f3cab1" d="M 411.5,130.5 C 412.673,134.533 414.173,138.533 416,142.5C 416.499,146.821 416.666,151.154 416.5,155.5C 415.146,172.352 406.48,183.519 390.5,189C 367.333,193.48 344,194.647 320.5,192.5C 316.081,191.028 311.414,190.362 306.5,190.5C 276.442,185.121 264.109,167.454 269.5,137.5C 274.429,128.41 281.763,121.91 291.5,118C 308.373,117.254 325.206,117.754 342,119.5C 358.79,117.72 375.623,117.22 392.5,118C 399.959,120.711 406.293,124.878 411.5,130.5 Z"/></g>
<g><path style="opacity:0.394" fill="#a9a9a9" d="M 243.5,107.5 C 242.734,116.479 242.401,125.479 242.5,134.5C 241.835,131.183 241.501,127.683 241.5,124C 241.358,118.257 242.025,112.757 243.5,107.5 Z"/></g>
<g><path style="opacity:1" fill="#fcf9f8" d="M 297.5,127.5 C 308.119,126.934 314.619,131.934 317,142.5C 318.35,150.639 317.017,158.306 313,165.5C 305.667,173.5 298.333,173.5 291,165.5C 285.753,156.195 285.086,146.528 289,136.5C 291.362,132.973 294.196,129.973 297.5,127.5 Z"/></g>
<g><path style="opacity:1" fill="#fcf9f8" d="M 380.5,127.5 C 390.939,126.639 397.439,131.306 400,141.5C 401.879,150.933 400.212,159.6 395,167.5C 387.98,173.125 381.314,172.792 375,166.5C 366.329,151.802 368.163,138.802 380.5,127.5 Z"/></g>
<g><path style="opacity:1" fill="#ae5f54" d="M 299.5,135.5 C 306.339,134.166 310.839,136.832 313,143.5C 314.209,149.886 313.209,155.886 310,161.5C 302.16,166.589 296.827,164.589 294,155.5C 291.927,147.587 293.761,140.92 299.5,135.5 Z"/></g>
<g><path style="opacity:1" fill="#ae5d52" d="M 379.5,135.5 C 386.079,134.038 390.579,136.371 393,142.5C 394.061,148.724 393.394,154.724 391,160.5C 382.549,167.119 376.882,165.119 374,154.5C 372.315,147.063 374.149,140.73 379.5,135.5 Z"/></g>
<g><path style="opacity:1" fill="#a58676" d="M 411.5,130.5 C 414.357,133.546 416.19,137.213 417,141.5C 417.815,146.352 417.648,151.019 416.5,155.5C 416.666,151.154 416.499,146.821 416,142.5C 414.173,138.533 412.673,134.533 411.5,130.5 Z"/></g>
<g><path style="opacity:1" fill="#faf4f3" d="M 296.5,140.5 C 298.167,140.5 299.833,140.5 301.5,140.5C 301.5,142.167 301.5,143.833 301.5,145.5C 299.833,145.5 298.167,145.5 296.5,145.5C 296.5,143.833 296.5,142.167 296.5,140.5 Z"/></g>
<g><path style="opacity:1" fill="#f2e5e3" d="M 378.5,140.5 C 382.138,139.737 383.638,141.07 383,144.5C 378.415,146.413 376.915,145.079 378.5,140.5 Z"/></g>
<g><path style="opacity:0.733" fill="#a3a2a2" d="M 196.5,158.5 C 198.948,157.527 201.615,157.194 204.5,157.5C 207.962,158.482 211.629,158.815 215.5,158.5C 211.366,159.485 207.032,159.818 202.5,159.5C 200.735,158.539 198.735,158.205 196.5,158.5 Z"/></g>
<g><path style="opacity:0.608" fill="#7c7b7b" d="M 245.5,152.5 C 246.309,153.469 247.309,154.302 248.5,155C 247.663,156.011 247.33,157.178 247.5,158.5C 236.833,158.5 226.167,158.5 215.5,158.5C 211.629,158.815 207.962,158.482 204.5,157.5C 218.146,155.739 231.813,155.405 245.5,156.5C 245.906,155.443 245.906,154.109 245.5,152.5 Z"/></g>
<g><path style="opacity:0.759" fill="#828181" d="M 438.5,153.5 C 438.5,154.5 438.5,155.5 438.5,156.5C 456.235,155.367 473.901,156.033 491.5,158.5C 489.735,159.461 487.735,159.795 485.5,159.5C 469.51,158.803 453.51,158.47 437.5,158.5C 437.216,156.585 437.549,154.919 438.5,153.5 Z"/></g>
<g><path style="opacity:0.988" fill="#5a5858" d="M 193.5,158.5 C 194.5,158.5 195.5,158.5 196.5,158.5C 198.735,158.205 200.735,158.539 202.5,159.5C 198.901,160.344 195.234,160.677 191.5,160.5C 190.761,160.631 190.094,160.464 189.5,160C 191.058,159.79 192.391,159.29 193.5,158.5 Z"/></g>
<g><path style="opacity:0.498" fill="#858383" d="M 491.5,158.5 C 497.833,159.167 504.167,159.833 510.5,160.5C 510.5,161.5 510.5,162.5 510.5,163.5C 502.037,162.136 493.704,160.802 485.5,159.5C 487.735,159.795 489.735,159.461 491.5,158.5 Z"/></g>
<g><path style="opacity:0.757" fill="#878585" d="M 193.5,158.5 C 192.391,159.29 191.058,159.79 189.5,160C 190.094,160.464 190.761,160.631 191.5,160.5C 187.011,161.699 182.344,162.699 177.5,163.5C 176.068,163.267 175.568,162.6 176,161.5C 181.698,159.899 187.532,158.899 193.5,158.5 Z"/></g>
<g><path style="opacity:0.741" fill="#9e9d9d" d="M 249.5,163.5 C 246.695,164.319 243.695,164.819 240.5,165C 244.356,165.177 248.023,165.677 251.5,166.5C 245.5,166.5 239.5,166.5 233.5,166.5C 231.393,165.532 229.059,165.198 226.5,165.5C 233.977,164.334 241.643,163.667 249.5,163.5 Z"/></g>
<g><path style="opacity:1" fill="#b36559" d="M 340.5,165.5 C 346.488,165.664 347.821,168.164 344.5,173C 338.403,173.147 337.07,170.647 340.5,165.5 Z"/></g>
<g><path style="opacity:1" fill="#7a7979" d="M 226.5,165.5 C 229.059,165.198 231.393,165.532 233.5,166.5C 214.695,168.302 196.028,171.636 177.5,176.5C 176.614,175.675 176.281,174.675 176.5,173.5C 192.93,169.414 209.597,166.748 226.5,165.5 Z"/></g>
<g><path style="opacity:0.908" fill="#8b8a8a" d="M 435.5,163.5 C 458.099,164.252 480.432,167.085 502.5,172C 505.541,172.576 508.208,173.742 510.5,175.5C 510,175.833 509.5,176.167 509,176.5C 484.627,169.766 459.794,166.432 434.5,166.5C 437.977,165.677 441.644,165.177 445.5,165C 441.975,164.821 438.641,164.321 435.5,163.5 Z"/></g>
<g><path style="opacity:1" fill="#b36559" d="M 333.5,177.5 C 335.682,178.3 337.349,179.8 338.5,182C 341.167,182.667 343.833,182.667 346.5,182C 347.726,180.365 349.059,178.865 350.5,177.5C 350.833,178 351.167,178.5 351.5,179C 346.271,186.939 340.438,187.439 334,180.5C 333.517,179.552 333.351,178.552 333.5,177.5 Z"/></g>
<g><path style="opacity:0.769" fill="#908e8e" d="M 263.5,181.5 C 265.027,181.427 266.027,182.094 266.5,183.5C 264.973,183.573 263.973,182.906 263.5,181.5 Z"/></g>
<g><path style="opacity:0.416" fill="#a09f9f" d="M 272.5,187.5 C 274.027,187.427 275.027,188.094 275.5,189.5C 273.973,189.573 272.973,188.906 272.5,187.5 Z"/></g>
<g><path style="opacity:1" fill="#b29584" d="M 306.5,190.5 C 311.414,190.362 316.081,191.028 320.5,192.5C 315.586,192.638 310.919,191.972 306.5,190.5 Z"/></g>
<g><path style="opacity:1" fill="#6d6c6c" d="M 288.5,194.5 C 292.162,194.723 295.495,195.723 298.5,197.5C 294.838,197.277 291.505,196.277 288.5,194.5 Z"/></g>
<g><path style="opacity:1" fill="#2e2c2c" d="M 246.5,194.5 C 246.918,195.222 247.584,195.722 248.5,196C 247.584,196.278 246.918,196.778 246.5,197.5C 246.668,200.051 247.668,200.718 249.5,199.5C 251.31,198.045 252.977,198.212 254.5,200C 253.584,200.278 252.918,200.778 252.5,201.5C 251.254,203.023 251.754,204.023 254,204.5C 255.03,204.164 255.53,203.497 255.5,202.5C 256.705,204.138 258.038,204.471 259.5,203.5C 262.924,208.101 266.591,212.601 270.5,217C 280.67,223.347 291.336,224.181 302.5,219.5C 301.167,220.5 301.167,221.5 302.5,222.5C 301.5,222.5 300.5,222.5 299.5,222.5C 299.5,223.5 299.5,224.5 299.5,225.5C 300.5,225.5 301.5,225.5 302.5,225.5C 301.24,229.541 299.906,233.541 298.5,237.5C 298.5,237.833 298.5,238.167 298.5,238.5C 282.852,241.958 269.685,237.625 259,225.5C 255.273,217.877 250.439,211.044 244.5,205C 242.423,203.295 240.09,202.128 237.5,201.5C 237.5,201.167 237.5,200.833 237.5,200.5C 237.027,199.094 236.027,198.427 234.5,198.5C 233.199,197.116 233.199,195.616 234.5,194C 238.689,193.188 242.689,193.355 246.5,194.5 Z"/></g>
<g><path style="opacity:0.196" fill="#87bacd" d="M 246.5,197.5 C 248.179,197.285 249.179,197.952 249.5,199.5C 247.668,200.718 246.668,200.051 246.5,197.5 Z"/></g>
<g><path style="opacity:1" fill="#49494a" d="M 246.5,194.5 C 252.015,195.76 256.348,198.76 259.5,203.5C 258.038,204.471 256.705,204.138 255.5,202.5C 254.609,201.89 253.609,201.557 252.5,201.5C 252.918,200.778 253.584,200.278 254.5,200C 252.977,198.212 251.31,198.045 249.5,199.5C 249.179,197.952 248.179,197.285 246.5,197.5C 246.918,196.778 247.584,196.278 248.5,196C 247.584,195.722 246.918,195.222 246.5,194.5 Z"/></g>
<g><path style="opacity:0.78" fill="#898888" d="M 234.5,198.5 C 236.027,198.427 237.027,199.094 237.5,200.5C 235.973,200.573 234.973,199.906 234.5,198.5 Z"/></g>
<g><path style="opacity:0.518" fill="#abaaaa" d="M 309.5,199.5 C 312.082,199.025 314.082,199.692 315.5,201.5C 315.167,201.5 314.833,201.5 314.5,201.5C 312.833,200.833 311.167,200.167 309.5,199.5 Z"/></g>
<g><path style="opacity:0.004" fill="#cbcbcb" d="M 378.5,199.5 C 376.5,200.167 374.5,200.833 372.5,201.5C 371.508,201.672 370.842,201.338 370.5,200.5C 372.948,199.527 375.615,199.194 378.5,199.5 Z"/></g>
<g><path style="opacity:1" fill="#0b0a0a" d="M 370.5,200.5 C 370.842,201.338 371.508,201.672 372.5,201.5C 373.5,201.833 374.167,202.5 374.5,203.5C 374.738,205.404 375.738,206.738 377.5,207.5C 377.427,209.027 378.094,210.027 379.5,210.5C 380.931,211.78 381.598,213.447 381.5,215.5C 381.649,216.552 381.483,217.552 381,218.5C 376.244,209.532 368.744,204.698 358.5,204C 346.5,203.333 334.5,203.333 322.5,204C 318.64,204.105 314.974,204.938 311.5,206.5C 310.893,206.376 310.56,206.043 310.5,205.5C 312.167,204.5 313.5,203.167 314.5,201.5C 314.833,201.5 315.167,201.5 315.5,201.5C 333.757,200.514 352.09,200.18 370.5,200.5 Z"/></g>
<g><path style="opacity:0.169" fill="#93cce1" d="M 252.5,201.5 C 253.609,201.557 254.609,201.89 255.5,202.5C 255.53,203.497 255.03,204.164 254,204.5C 251.754,204.023 251.254,203.023 252.5,201.5 Z"/></g>
<g><path style="opacity:0.702" fill="#898989" d="M 314.5,201.5 C 313.5,203.167 312.167,204.5 310.5,205.5C 310.833,203.167 312.167,201.833 314.5,201.5 Z"/></g>
<g><path style="opacity:1" fill="#211f1f" d="M 381.5,215.5 C 382.29,216.609 382.79,217.942 383,219.5C 383.5,232.829 383.667,246.163 383.5,259.5C 381.109,270.87 384.942,279.203 395,284.5C 395.484,286.193 394.984,287.527 393.5,288.5C 388.03,288.754 382.696,288.087 377.5,286.5C 368.394,279.5 365.061,270.167 367.5,258.5C 367.666,249.161 367.5,239.827 367,230.5C 366.768,229.263 366.268,228.263 365.5,227.5C 364.662,227.158 364.328,226.492 364.5,225.5C 364.179,223.952 363.179,223.285 361.5,223.5C 361.17,243.674 361.503,263.674 362.5,283.5C 362.583,288.681 364.917,292.347 369.5,294.5C 369.747,296.858 369.081,298.858 367.5,300.5C 366.5,300.5 365.5,300.5 364.5,300.5C 359.815,299.654 355.481,297.987 351.5,295.5C 349.163,292.829 347.329,289.829 346,286.5C 345.832,263.996 345.332,241.663 344.5,219.5C 343.5,219.5 342.5,219.5 341.5,219.5C 340.668,241.663 340.168,263.996 340,286.5C 339.262,289.648 337.762,292.315 335.5,294.5C 331.561,297.302 327.228,299.302 322.5,300.5C 321.5,300.5 320.5,300.5 319.5,300.5C 317.247,298.55 316.914,296.216 318.5,293.5C 321.572,292.699 323.238,290.699 323.5,287.5C 324.828,266.33 324.828,244.996 323.5,223.5C 322.893,223.624 322.56,223.957 322.5,224.5C 321.833,225.833 321.167,227.167 320.5,228.5C 319.732,229.263 319.232,230.263 319,231.5C 318.5,245.163 318.333,258.829 318.5,272.5C 318.21,278.756 315.21,283.089 309.5,285.5C 304.346,287.238 299.012,288.238 293.5,288.5C 290.924,288.278 290.09,286.945 291,284.5C 294,282.5 297,280.5 300,278.5C 301.122,276.593 301.955,274.593 302.5,272.5C 303.495,261.012 303.828,249.345 303.5,237.5C 301.833,237.5 300.167,237.5 298.5,237.5C 299.906,233.541 301.24,229.541 302.5,225.5C 302.5,224.5 302.5,223.5 302.5,222.5C 301.167,221.5 301.167,220.5 302.5,219.5C 303.833,219.5 304.5,218.833 304.5,217.5C 304.733,214.458 305.733,211.792 307.5,209.5C 308.906,209.027 309.573,208.027 309.5,206.5C 309.5,205.833 309.833,205.5 310.5,205.5C 310.56,206.043 310.893,206.376 311.5,206.5C 314.974,204.938 318.64,204.105 322.5,204C 334.5,203.333 346.5,203.333 358.5,204C 368.744,204.698 376.244,209.532 381,218.5C 381.483,217.552 381.649,216.552 381.5,215.5 Z M 322.5,224.5 C 323.495,235.321 323.828,246.321 323.5,257.5C 322.041,257.433 320.708,257.766 319.5,258.5C 319.271,248.468 319.604,238.468 320.5,228.5C 321.167,227.167 321.833,225.833 322.5,224.5 Z M 364.5,225.5 C 364.328,226.492 364.662,227.158 365.5,227.5C 366.396,237.468 366.729,247.468 366.5,257.5C 365.167,257.5 363.833,257.5 362.5,257.5C 362.333,246.495 362.5,235.495 363,224.5C 363.383,225.056 363.883,225.389 364.5,225.5 Z M 341.5,219.5 C 342.5,219.5 343.5,219.5 344.5,219.5C 344.667,232.171 344.5,244.838 344,257.5C 343.333,256.167 342.667,256.167 342,257.5C 341.5,244.838 341.333,232.171 341.5,219.5 Z"/></g>
<g><path style="opacity:0.99" fill="#ade0f3" d="M 237.5,201.5 C 238.792,204.544 239.792,207.71 240.5,211C 238.456,216.974 236.456,216.974 234.5,211C 234.671,207.454 235.671,204.287 237.5,201.5 Z"/></g>
<g><path style="opacity:0.976" fill="#6e6e6e" d="M 374.5,203.5 C 376.262,204.262 377.262,205.596 377.5,207.5C 375.738,206.738 374.738,205.404 374.5,203.5 Z"/></g>
<g><path style="opacity:0.424" fill="#a3a3a3" d="M 309.5,206.5 C 309.573,208.027 308.906,209.027 307.5,209.5C 307.427,207.973 308.094,206.973 309.5,206.5 Z"/></g>
<g><path style="opacity:0.529" fill="#838383" d="M 377.5,207.5 C 378.906,207.973 379.573,208.973 379.5,210.5C 378.094,210.027 377.427,209.027 377.5,207.5 Z"/></g>
<g><path style="opacity:0.247" fill="#91cadf" d="M 257.5,207.5 C 260.5,207.167 261.833,208.5 261.5,211.5C 258.5,211.833 257.167,210.5 257.5,207.5 Z"/></g>
<g><path style="opacity:0.251" fill="#91cadf" d="M 263.5,214.5 C 266.297,214.967 267.631,216.633 267.5,219.5C 264.09,219.616 262.756,217.95 263.5,214.5 Z"/></g>
<g><path style="opacity:0.533" fill="#b3b3b3" d="M 304.5,217.5 C 304.5,218.833 303.833,219.5 302.5,219.5C 302.833,218.5 303.5,217.833 304.5,217.5 Z"/></g>
<g><path style="opacity:0.201" fill="#92cbe0" d="M 270.5,221.5 C 273.588,221.197 275.254,222.53 275.5,225.5C 272.05,226.244 270.384,224.91 270.5,221.5 Z"/></g>
<g><path style="opacity:0.322" fill="#93cde3" d="M 302.5,222.5 C 302.5,223.5 302.5,224.5 302.5,225.5C 301.5,225.5 300.5,225.5 299.5,225.5C 299.5,224.5 299.5,223.5 299.5,222.5C 300.5,222.5 301.5,222.5 302.5,222.5 Z"/></g>
<g><path style="opacity:0.857" fill="#464749" d="M 364.5,225.5 C 363.883,225.389 363.383,225.056 363,224.5C 362.5,235.495 362.333,246.495 362.5,257.5C 362.5,257.833 362.5,258.167 362.5,258.5C 362.5,266.833 362.5,275.167 362.5,283.5C 361.503,263.674 361.17,243.674 361.5,223.5C 363.179,223.285 364.179,223.952 364.5,225.5 Z"/></g>
<g><path style="opacity:0.487" fill="#868e92" d="M 322.5,224.5 C 322.56,223.957 322.893,223.624 323.5,223.5C 324.828,244.996 324.828,266.33 323.5,287.5C 323.5,277.5 323.5,267.5 323.5,257.5C 323.828,246.321 323.495,235.321 322.5,224.5 Z"/></g>
<g><path style="opacity:0.949" fill="#93cce2" d="M 290.5,224.5 C 293.166,224.066 294.333,225.066 294,227.5C 290.403,229.066 289.237,228.066 290.5,224.5 Z"/></g>
<g><path style="opacity:0.357" fill="#91c9de" d="M 279.5,224.5 C 280.873,224.343 282.207,224.51 283.5,225C 284.674,227.829 283.674,228.829 280.5,228C 279.663,226.989 279.33,225.822 279.5,224.5 Z"/></g>
<g><path style="opacity:0.683" fill="#6a6e70" d="M 320.5,228.5 C 319.604,238.468 319.271,248.468 319.5,258.5C 319.819,263.363 319.486,268.03 318.5,272.5C 318.333,258.829 318.5,245.163 319,231.5C 319.232,230.263 319.732,229.263 320.5,228.5 Z"/></g>
<g><path style="opacity:0.14" fill="#cdd0d1" d="M 365.5,227.5 C 366.268,228.263 366.768,229.263 367,230.5C 367.5,239.827 367.666,249.161 367.5,258.5C 365.833,258.5 364.167,258.5 362.5,258.5C 362.5,258.167 362.5,257.833 362.5,257.5C 363.833,257.5 365.167,257.5 366.5,257.5C 366.729,247.468 366.396,237.468 365.5,227.5 Z"/></g>
<g><path style="opacity:0.375" fill="#9aa1a4" d="M 298.5,238.5 C 298.5,238.167 298.5,237.833 298.5,237.5C 300.167,237.5 301.833,237.5 303.5,237.5C 303.828,249.345 303.495,261.012 302.5,272.5C 302.5,268.5 302.5,264.5 302.5,260.5C 302.5,253.167 302.5,245.833 302.5,238.5C 301.167,238.5 299.833,238.5 298.5,238.5 Z"/></g>
<g><path style="opacity:0.999" fill="#9dccdf" d="M 341.5,219.5 C 341.333,232.171 341.5,244.838 342,257.5C 342.667,256.167 343.333,256.167 344,257.5C 344.5,244.838 344.667,232.171 344.5,219.5C 345.332,241.663 345.832,263.996 346,286.5C 347.329,289.829 349.163,292.829 351.5,295.5C 348.919,298.32 347.086,301.654 346,305.5C 345.501,311.157 345.334,316.824 345.5,322.5C 350.833,322.5 356.167,322.5 361.5,322.5C 350.167,323.833 338.833,323.833 327.5,322.5C 331.833,322.5 336.167,322.5 340.5,322.5C 340.666,316.824 340.499,311.157 340,305.5C 339.028,301.564 337.528,297.897 335.5,294.5C 337.762,292.315 339.262,289.648 340,286.5C 340.168,263.996 340.668,241.663 341.5,219.5 Z M 341.5,219.5 C 342.5,219.5 343.5,219.5 344.5,219.5C 344.667,232.171 344.5,244.838 344,257.5C 343.333,256.167 342.667,256.167 342,257.5C 341.5,244.838 341.333,232.171 341.5,219.5 Z"/></g>
<g><path style="opacity:0.996" fill="#99d6ec" d="M 362.5,258.5 C 364.167,258.5 365.833,258.5 367.5,258.5C 365.061,270.167 368.394,279.5 377.5,286.5C 373.84,288.16 371.173,290.827 369.5,294.5C 364.917,292.347 362.583,288.681 362.5,283.5C 362.5,275.167 362.5,266.833 362.5,258.5 Z"/></g>
<g><path style="opacity:1" fill="#9bd8ef" d="M 323.5,257.5 C 323.5,267.5 323.5,277.5 323.5,287.5C 323.238,290.699 321.572,292.699 318.5,293.5C 314.895,291.528 311.895,288.861 309.5,285.5C 315.21,283.089 318.21,278.756 318.5,272.5C 319.486,268.03 319.819,263.363 319.5,258.5C 320.708,257.766 322.041,257.433 323.5,257.5 Z"/></g>
<g><path style="opacity:1" fill="#9edaf1" d="M 302.5,260.5 C 302.5,264.5 302.5,268.5 302.5,272.5C 301.955,274.593 301.122,276.593 300,278.5C 297,280.5 294,282.5 291,284.5C 290.09,286.945 290.924,288.278 293.5,288.5C 298.307,291.072 301.474,295.072 303,300.5C 303.5,306.825 303.666,313.158 303.5,319.5C 305.099,319.232 306.432,319.566 307.5,320.5C 291.621,318.929 276.621,314.429 262.5,307C 246.939,296.335 246.606,285.335 261.5,274C 274.35,266.994 288.016,262.494 302.5,260.5 Z"/></g>
<g><path style="opacity:1" fill="#9edaf1" d="M 383.5,259.5 C 398.963,261.821 413.629,266.654 427.5,274C 437.93,279.667 440.763,287.833 436,298.5C 427.227,307.306 416.727,313.14 404.5,316C 397.549,317.823 390.549,319.323 383.5,320.5C 383.334,313.159 383.5,305.826 384,298.5C 386.022,293.98 389.189,290.647 393.5,288.5C 394.984,287.527 395.484,286.193 395,284.5C 384.942,279.203 381.109,270.87 383.5,259.5 Z"/></g>
<g><path style="opacity:1" fill="#7cbae4" d="M 309.5,285.5 C 311.895,288.861 314.895,291.528 318.5,293.5C 316.914,296.216 317.247,298.55 319.5,300.5C 319.83,307.532 319.497,314.532 318.5,321.5C 315.242,320.583 311.909,320.249 308.5,320.5C 308.167,320.5 307.833,320.5 307.5,320.5C 306.432,319.566 305.099,319.232 303.5,319.5C 303.666,313.158 303.5,306.825 303,300.5C 301.474,295.072 298.307,291.072 293.5,288.5C 299.012,288.238 304.346,287.238 309.5,285.5 Z"/></g>
<g><path style="opacity:1" fill="#7ebbe6" d="M 377.5,286.5 C 382.696,288.087 388.03,288.754 393.5,288.5C 389.189,290.647 386.022,293.98 384,298.5C 383.5,305.826 383.334,313.159 383.5,320.5C 379.548,321.272 375.548,321.605 371.5,321.5C 370.167,321.5 368.833,321.5 367.5,321.5C 367.5,314.5 367.5,307.5 367.5,300.5C 369.081,298.858 369.747,296.858 369.5,294.5C 371.173,290.827 373.84,288.16 377.5,286.5 Z"/></g>
<g><path style="opacity:1" fill="#7dbbe5" d="M 335.5,294.5 C 337.528,297.897 339.028,301.564 340,305.5C 340.499,311.157 340.666,316.824 340.5,322.5C 336.167,322.5 331.833,322.5 327.5,322.5C 326.167,322.5 324.833,322.5 323.5,322.5C 323.726,315.124 323.392,307.791 322.5,300.5C 327.228,299.302 331.561,297.302 335.5,294.5 Z"/></g>
<g><path style="opacity:1" fill="#7dbbe5" d="M 351.5,295.5 C 355.481,297.987 359.815,299.654 364.5,300.5C 362.704,307.669 362.037,315.003 362.5,322.5C 362.167,322.5 361.833,322.5 361.5,322.5C 356.167,322.5 350.833,322.5 345.5,322.5C 345.334,316.824 345.501,311.157 346,305.5C 347.086,301.654 348.919,298.32 351.5,295.5 Z"/></g>
<g><path style="opacity:1" fill="#9ed9f0" d="M 364.5,300.5 C 365.5,300.5 366.5,300.5 367.5,300.5C 367.5,307.5 367.5,314.5 367.5,321.5C 368.833,321.5 370.167,321.5 371.5,321.5C 368.713,322.477 365.713,322.81 362.5,322.5C 362.037,315.003 362.704,307.669 364.5,300.5 Z"/></g>
<g><path style="opacity:1" fill="#a0daf0" d="M 319.5,300.5 C 320.5,300.5 321.5,300.5 322.5,300.5C 323.392,307.791 323.726,315.124 323.5,322.5C 318.29,322.392 313.29,321.725 308.5,320.5C 311.909,320.249 315.242,320.583 318.5,321.5C 319.497,314.532 319.83,307.532 319.5,300.5 Z"/></g>
</svg>