<?xml version="1.0" encoding="UTF-8"?>
<!DOCTYPE svg PUBLIC "-//W3C//DTD SVG 1.1//EN" "http://www.w3.org/Graphics/SVG/1.1/DTD/svg11.dtd">
<svg xmlns="http://www.w3.org/2000/svg" version="1.1" width="200px" height="105px" style="shape-rendering:geometricPrecision; text-rendering:geometricPrecision; image-rendering:optimizeQuality; fill-rule:evenodd; clip-rule:evenodd" xmlns:xlink="http://www.w3.org/1999/xlink">
<g><path style="opacity:0.947" fill="#3a2d19" d="M 74.5,29.5 C 84.5213,28.6793 92.8546,32.0126 99.5,39.5C 110.913,28.1329 123.58,26.6329 137.5,35C 142.5,39.3333 147.5,43.6667 152.5,48C 155.226,50.0298 158.226,51.5298 161.5,52.5C 164.567,51.9766 166.9,50.4766 168.5,48C 166.36,43.4176 164.36,43.5843 162.5,48.5C 159.231,45.6464 158.731,42.313 161,38.5C 169.377,33.8471 175.71,35.8471 180,44.5C 181.503,55.3263 177.336,63.1596 167.5,68C 162.43,69.1875 157.43,69.6875 152.5,69.5C 139.291,65.2291 126.291,60.3958 113.5,55C 104.833,53 96.1667,53 87.5,55C 76.2448,59.5296 64.9115,63.863 53.5,68C 43.7694,70.5604 34.4361,69.5604 25.5,65C 17.0098,56.5716 16.3432,47.5716 23.5,38C 29.5291,34.1439 34.6957,34.9772 39,40.5C 40.297,44.1541 39.297,46.8208 36,48.5C 35.8882,45.5529 34.3882,44.2196 31.5,44.5C 31.157,50.3259 33.8236,52.8259 39.5,52C 41.6705,50.4138 44.0038,49.0804 46.5,48C 54.1255,39.0356 63.4589,32.8689 74.5,29.5 Z"/></g>
</svg>
