<?xml version="1.0" encoding="UTF-8"?>
<!DOCTYPE svg PUBLIC "-//W3C//DTD SVG 1.1//EN" "http://www.w3.org/Graphics/SVG/1.1/DTD/svg11.dtd">
<svg xmlns="http://www.w3.org/2000/svg" version="1.1" width="162px" height="78px" style="shape-rendering:geometricPrecision; text-rendering:geometricPrecision; image-rendering:optimizeQuality; fill-rule:evenodd; clip-rule:evenodd" xmlns:xlink="http://www.w3.org/1999/xlink">
<g><path style="opacity:0.914" fill="#870202" d="M 67.5,13.5 C 98.2183,11.3972 127.885,16.2305 156.5,28C 158.325,29.4659 158.825,31.2992 158,33.5C 156.939,36.5616 155.106,39.0616 152.5,41C 140.862,43.7942 129.196,46.4609 117.5,49C 115.598,50.3938 115.265,52.2271 116.5,54.5C 110.176,55.2956 103.842,56.1289 97.5,57C 93.7587,58.7379 90.592,61.2379 88,64.5C 86.7534,57.221 86.2534,49.8876 86.5,42.5C 82.3951,42.2338 78.3951,42.7338 74.5,44C 72.4466,47.2834 70.2799,50.45 68,53.5C 65.5952,50.3667 63.4286,47.0333 61.5,43.5C 57.5546,42.5091 53.5546,42.1758 49.5,42.5C 49.8226,46.226 49.4892,49.8927 48.5,53.5C 43.4211,47.6258 37.0878,43.7925 29.5,42C 20.4121,41.3391 11.4121,41.6725 2.5,43C 20.4761,26.1821 41.8095,17.3488 66.5,16.5C 66.3398,18.1992 66.5065,19.8659 67,21.5C 67.4974,18.854 67.6641,16.1873 67.5,13.5 Z M 81.5,32.5 C 76.6156,29.3719 73.7823,25.0385 73,19.5C 76.9106,20.579 80.4106,22.4124 83.5,25C 83.048,26.6124 81.7147,27.6124 79.5,28C 81.6502,29.1923 82.3168,30.6923 81.5,32.5 Z M 111.5,25.5 C 116.12,24.5725 120.786,25.0725 125.5,27C 120.61,27.9656 115.943,27.4656 111.5,25.5 Z"/></g>
<g><path style="opacity:0.407" fill="#890302" d="M 63.5,58.5 C 62.5128,63.3054 62.1795,68.3054 62.5,73.5C 66.5,73.5 70.5,73.5 74.5,73.5C 74.5,68.1667 74.5,62.8333 74.5,57.5C 75.4889,62.9753 75.8222,68.642 75.5,74.5C 70.8333,74.5 66.1667,74.5 61.5,74.5C 61.1707,68.4632 61.5041,62.4632 62.5,56.5C 63.2975,56.9569 63.6309,57.6236 63.5,58.5 Z"/></g>
<g><path style="opacity:0.962" fill="#890905" d="M 74.5,57.5 C 74.5,62.8333 74.5,68.1667 74.5,73.5C 70.5,73.5 66.5,73.5 62.5,73.5C 62.1795,68.3054 62.5128,63.3054 63.5,58.5C 64.9319,60.3271 66.5986,61.9937 68.5,63.5C 70.3333,61.1667 72.1667,58.8333 74,56.5C 74.3988,56.7284 74.5654,57.0618 74.5,57.5 Z"/></g>
</svg>
