<?xml version="1.0" encoding="UTF-8"?>
<!DOCTYPE svg PUBLIC "-//W3C//DTD SVG 1.1//EN" "http://www.w3.org/Graphics/SVG/1.1/DTD/svg11.dtd">
<svg xmlns="http://www.w3.org/2000/svg" version="1.1" width="512px" height="512px" style="shape-rendering:geometricPrecision; text-rendering:geometricPrecision; image-rendering:optimizeQuality; fill-rule:evenodd; clip-rule:evenodd" xmlns:xlink="http://www.w3.org/1999/xlink">
<g><path style="opacity:0.163" fill="#fafafa" d="M 390.5,151.5 C 390.167,151.5 389.833,151.5 389.5,151.5C 388.193,150.847 386.86,150.18 385.5,149.5C 385.06,150.698 384.727,151.865 384.5,153C 379.078,152.568 375.245,154.734 373,159.5C 372.768,158.263 372.268,157.263 371.5,156.5C 371.5,155.833 371.167,155.5 370.5,155.5C 362.73,150.441 354.73,145.608 346.5,141C 344.888,140.28 343.388,140.446 342,141.5C 341.667,168.5 341.333,195.5 341,222.5C 333.034,217.767 324.868,213.434 316.5,209.5C 299.537,218.65 282.537,227.816 265.5,237C 264.29,238.039 263.29,239.206 262.5,240.5C 260.606,239.952 258.94,238.952 257.5,237.5C 258.711,236.28 258.711,235.113 257.5,234C 243.992,226.412 230.326,219.079 216.5,212C 213.515,211.132 210.515,210.799 207.5,211C 208.833,211.667 210.167,212.333 211.5,213C 209.432,213.687 207.432,213.52 205.5,212.5C 203.164,213.001 201.164,214.001 199.5,215.5C 194.975,212.228 189.975,210.728 184.5,211C 168.634,220.099 152.634,228.933 136.5,237.5C 134.306,235.165 131.639,233.332 128.5,232C 129.833,231.667 131.167,231.333 132.5,231C 119.834,222.834 106.5,216 92.5,210.5C 91.5,210.667 90.5,210.833 89.5,211C 90.8333,211.667 92.1667,212.333 93.5,213C 93,213.167 92.5,213.333 92,213.5C 89.2336,212.747 86.5669,212.414 84,212.5C 82.6998,213.707 81.1998,214.374 79.5,214.5C 76.6987,213.265 74.0321,211.765 71.5,210C 69.8333,209.333 68.1667,209.333 66.5,210C 50.9942,218.92 35.3276,227.587 19.5,236C 17.9069,236.949 16.5736,238.115 15.5,239.5C 14.5022,265.661 14.1688,291.995 14.5,318.5C 12.005,320.829 9.67164,323.329 7.5,326C 7.95735,326.414 8.29069,326.914 8.5,327.5C 7.60193,330.573 6.60193,333.573 5.5,336.5C 3.29719,336.396 1.29719,335.73 -0.5,334.5C -0.5,296.833 -0.5,259.167 -0.5,221.5C 16.1498,211.505 33.1498,202.005 50.5,193C 62.8333,189.667 75.1667,189.667 87.5,193C 101,200.833 114.834,208 129,214.5C 142.852,207.49 156.686,200.323 170.5,193C 182.167,191 193.833,191 205.5,193C 221.03,201.217 236.53,209.384 252,217.5C 267.69,209.738 283.19,201.571 298.5,193C 305.981,191.474 313.481,190.307 321,189.5C 321.333,172.5 321.667,155.5 322,138.5C 322.059,132.632 324.226,127.798 328.5,124C 339.814,120.796 351.148,120.796 362.5,124C 370.329,128.08 377.996,132.413 385.5,137C 389.055,141.165 390.722,145.998 390.5,151.5 Z"/></g>
<g><path style="opacity:0.03" fill="#020202" d="M 391.5,153.5 C 396.927,155.101 400.093,158.767 401,164.5C 402.387,176.457 403.22,188.457 403.5,200.5C 402.833,200.833 402.167,201.167 401.5,201.5C 399.436,204.046 397.103,206.379 394.5,208.5C 392.994,209.747 391.494,209.747 390,208.5C 389.157,194.108 389.657,179.775 391.5,165.5C 391.5,162.5 391.5,159.5 391.5,156.5C 391.5,155.5 391.5,154.5 391.5,153.5 Z"/></g>
<g><path style="opacity:1" fill="#0f1214" d="M 370.5,155.5 C 370.5,158.5 370.5,161.5 370.5,164.5C 362.524,162.741 356.691,165.408 353,172.5C 349.267,188.967 346.933,205.633 346,222.5C 343.31,228.519 338.643,231.852 332,232.5C 329.346,232.746 326.679,232.079 324,230.5C 310.201,234.319 298.035,241.152 287.5,251C 277.067,254.503 271.734,261.836 271.5,273C 271.851,276.07 272.517,279.07 273.5,282C 271.625,288.24 269.625,294.406 267.5,300.5C 266.5,300.5 265.5,300.5 264.5,300.5C 263.883,300.389 263.383,300.056 263,299.5C 262.5,280.17 262.333,260.836 262.5,241.5C 262.5,241.167 262.5,240.833 262.5,240.5C 263.29,239.206 264.29,238.039 265.5,237C 282.537,227.816 299.537,218.65 316.5,209.5C 324.868,213.434 333.034,217.767 341,222.5C 341.333,195.5 341.667,168.5 342,141.5C 343.388,140.446 344.888,140.28 346.5,141C 354.73,145.608 362.73,150.441 370.5,155.5 Z"/></g>
<g><path style="opacity:1" fill="#13191c" d="M 370.5,164.5 C 370.5,166.167 370.5,167.833 370.5,169.5C 363.728,168.636 358.895,171.303 356,177.5C 351.568,193.86 349.568,210.527 350,227.5C 348.526,235.554 343.86,238.887 336,237.5C 334.04,239.899 331.874,240.065 329.5,238C 325.5,237.333 321.5,237.333 317.5,238C 302.147,244.711 289.147,254.378 278.5,267C 278.67,270.347 279.003,273.681 279.5,277C 277.36,286.255 274.36,295.088 270.5,303.5C 268.181,303.008 266.181,302.008 264.5,300.5C 265.5,300.5 266.5,300.5 267.5,300.5C 269.625,294.406 271.625,288.24 273.5,282C 272.517,279.07 271.851,276.07 271.5,273C 271.734,261.836 277.067,254.503 287.5,251C 298.035,241.152 310.201,234.319 324,230.5C 326.679,232.079 329.346,232.746 332,232.5C 338.643,231.852 343.31,228.519 346,222.5C 346.933,205.633 349.267,188.967 353,172.5C 356.691,165.408 362.524,162.741 370.5,164.5 Z"/></g>
<g><path style="opacity:1" fill="#1b2326" d="M 370.5,155.5 C 371.167,155.5 371.5,155.833 371.5,156.5C 371.5,161.833 371.5,167.167 371.5,172.5C 370.521,175.625 370.187,178.958 370.5,182.5C 367.386,183.091 364.886,184.758 363,187.5C 357.496,201.38 357.163,215.38 362,229.5C 363.807,231.694 366.14,233.027 369,233.5C 369.333,232.833 369.667,232.167 370,231.5C 370.5,253.831 370.667,276.164 370.5,298.5C 370.672,299.492 370.338,300.158 369.5,300.5C 366.635,300.055 364.135,300.722 362,302.5C 361.667,302.167 361.333,301.833 361,301.5C 352.728,308.883 342.728,314.217 331,317.5C 315.952,314.616 305.119,306.283 298.5,292.5C 298.815,290.517 299.815,289.184 301.5,288.5C 302.833,289.167 304.167,289.833 305.5,290.5C 309.118,292.137 312.451,294.137 315.5,296.5C 315.062,296.435 314.728,296.601 314.5,297C 324.53,308.719 335.364,308.886 347,297.5C 352.626,287.754 351.292,279.087 343,271.5C 342.823,275.356 342.323,279.023 341.5,282.5C 341.5,276.833 341.5,271.167 341.5,265.5C 341.665,262.15 341.498,258.817 341,255.5C 337.885,253.693 334.719,252.027 331.5,250.5C 331.158,249.662 330.492,249.328 329.5,249.5C 325.784,246.554 321.618,244.221 317,242.5C 308.743,246.711 300.576,251.045 292.5,255.5C 291.67,264.658 291.17,273.991 291,283.5C 289.853,282.542 288.853,282.875 288,284.5C 285.622,289.585 282.956,294.585 280,299.5C 279.218,302.31 278.384,304.977 277.5,307.5C 274.669,306.921 272.336,305.588 270.5,303.5C 274.36,295.088 277.36,286.255 279.5,277C 279.003,273.681 278.67,270.347 278.5,267C 289.147,254.378 302.147,244.711 317.5,238C 321.5,237.333 325.5,237.333 329.5,238C 331.874,240.065 334.04,239.899 336,237.5C 343.86,238.887 348.526,235.554 350,227.5C 349.568,210.527 351.568,193.86 356,177.5C 358.895,171.303 363.728,168.636 370.5,169.5C 370.5,167.833 370.5,166.167 370.5,164.5C 370.5,161.5 370.5,158.5 370.5,155.5 Z"/></g>
<g><path style="opacity:0.257" fill="#323232" d="M 391.5,165.5 C 389.657,179.775 389.157,194.108 390,208.5C 391.494,209.747 392.994,209.747 394.5,208.5C 397.103,206.379 399.436,204.046 401.5,201.5C 400.921,204.331 399.588,206.664 397.5,208.5C 394.856,212.323 391.189,214.323 386.5,214.5C 386.333,203.828 386.5,193.161 387,182.5C 388.367,176.692 389.867,171.025 391.5,165.5 Z"/></g>
<g><path style="opacity:1" fill="#263136" d="M 371.5,172.5 C 371.5,214.5 371.5,256.5 371.5,298.5C 371.167,298.5 370.833,298.5 370.5,298.5C 370.667,276.164 370.5,253.831 370,231.5C 369.667,232.167 369.333,232.833 369,233.5C 366.14,233.027 363.807,231.694 362,229.5C 357.163,215.38 357.496,201.38 363,187.5C 364.886,184.758 367.386,183.091 370.5,182.5C 370.187,178.958 370.521,175.625 371.5,172.5 Z"/></g>
<g><path style="opacity:0.555" fill="#6c6c6c" d="M 390.5,158.5 C 388.467,165.776 386.3,173.109 384,180.5C 382.048,192.847 382.048,205.181 384,217.5C 385.699,218.406 387.533,218.739 389.5,218.5C 387.678,221.5 385.178,222.167 382,220.5C 381.71,218.956 381.044,217.623 380,216.5C 379.069,202.94 379.569,189.44 381.5,176C 384.805,170.893 387.138,165.393 388.5,159.5C 389.167,159.167 389.833,158.833 390.5,158.5 Z"/></g>
<g><path style="opacity:0.689" fill="#878787" d="M 388.5,159.5 C 387.138,165.393 384.805,170.893 381.5,176C 379.569,189.44 379.069,202.94 380,216.5C 381.044,217.623 381.71,218.956 382,220.5C 385.178,222.167 387.678,221.5 389.5,218.5C 390.262,216.738 391.596,215.738 393.5,215.5C 391.1,220.233 387.434,223.567 382.5,225.5C 378.751,225.251 376.917,223.251 377,219.5C 376.229,205.65 376.395,191.816 377.5,178C 379.234,170.568 382.9,164.402 388.5,159.5 Z"/></g>
<g><path style="opacity:0.459" fill="#525252" d="M 391.5,156.5 C 391.5,159.5 391.5,162.5 391.5,165.5C 389.867,171.025 388.367,176.692 387,182.5C 386.5,193.161 386.333,203.828 386.5,214.5C 391.189,214.323 394.856,212.323 397.5,208.5C 396.921,211.331 395.588,213.664 393.5,215.5C 391.596,215.738 390.262,216.738 389.5,218.5C 387.533,218.739 385.699,218.406 384,217.5C 382.048,205.181 382.048,192.847 384,180.5C 386.3,173.109 388.467,165.776 390.5,158.5C 390.328,157.508 390.662,156.842 391.5,156.5 Z"/></g>
<g><path style="opacity:0.769" fill="#a0a0a0" d="M 389.5,151.5 C 389.833,151.5 390.167,151.5 390.5,151.5C 391.338,151.842 391.672,152.508 391.5,153.5C 391.5,154.5 391.5,155.5 391.5,156.5C 390.662,156.842 390.328,157.508 390.5,158.5C 389.833,158.833 389.167,159.167 388.5,159.5C 382.9,164.402 379.234,170.568 377.5,178C 376.395,191.816 376.229,205.65 377,219.5C 376.917,223.251 378.751,225.251 382.5,225.5C 387.434,223.567 391.1,220.233 393.5,215.5C 395.588,213.664 396.921,211.331 397.5,208.5C 399.588,206.664 400.921,204.331 401.5,201.5C 402.167,201.167 402.833,200.833 403.5,200.5C 403.5,202.167 403.5,203.833 403.5,205.5C 402.624,205.369 401.957,205.702 401.5,206.5C 399.33,209.983 397.663,213.65 396.5,217.5C 392.272,223.374 386.772,227.707 380,230.5C 378.739,230.241 377.739,229.574 377,228.5C 373.737,209.531 373.737,190.531 377,171.5C 377.822,169.212 378.489,166.878 379,164.5C 382.359,160.768 385.692,157.768 389,155.5C 389.49,154.207 389.657,152.873 389.5,151.5 Z"/></g>
<g><path style="opacity:0.15" fill="#f9f9f9" d="M 509.5,235.5 C 509.167,235.5 508.833,235.5 508.5,235.5C 508.167,235.5 507.833,235.5 507.5,235.5C 505.565,234.19 503.565,232.857 501.5,231.5C 501.5,232.833 501.5,234.167 501.5,235.5C 496.736,233.201 491.736,233.535 486.5,236.5C 469.675,227.253 452.675,218.253 435.5,209.5C 422.156,216.518 408.823,223.518 395.5,230.5C 395.29,225.584 396.79,221.251 400,217.5C 400.347,213.172 401.514,209.172 403.5,205.5C 403.5,203.833 403.5,202.167 403.5,200.5C 418.19,190.991 434.19,188.158 451.5,192C 469.12,200.81 486.454,210.143 503.5,220C 507.758,224.272 509.758,229.439 509.5,235.5 Z"/></g>
<g><path style="opacity:0.397" fill="#f1f1f1" d="M 136.5,237.5 C 135.878,238.627 135.045,239.627 134,240.5C 133.501,244.821 133.334,249.154 133.5,253.5C 133.5,253.833 133.5,254.167 133.5,254.5C 132.698,255.952 132.198,257.618 132,259.5C 129.561,257.371 127.061,255.371 124.5,253.5C 124.817,249.298 124.483,245.298 123.5,241.5C 122.746,238.909 121.079,237.076 118.5,236C 109.937,231.219 101.27,226.719 92.5,222.5C 88.3339,219.583 84.0006,216.916 79.5,214.5C 81.1998,214.374 82.6998,213.707 84,212.5C 86.5669,212.414 89.2336,212.747 92,213.5C 92.5,213.333 93,213.167 93.5,213C 92.1667,212.333 90.8333,211.667 89.5,211C 90.5,210.833 91.5,210.667 92.5,210.5C 106.5,216 119.834,222.834 132.5,231C 131.167,231.333 129.833,231.667 128.5,232C 131.639,233.332 134.306,235.165 136.5,237.5 Z"/></g>
<g><path style="opacity:1" fill="#102212" d="M 199.5,215.5 C 200.833,216.5 202.167,217.5 203.5,218.5C 201.298,218.724 198.965,219.057 196.5,219.5C 195.238,217.619 193.571,216.286 191.5,215.5C 186.606,216.946 181.94,218.946 177.5,221.5C 169.373,228.583 162.04,236.416 155.5,245C 149.742,247.44 143.742,248.94 137.5,249.5C 138.833,252.167 138.167,252.833 135.5,251.5C 134.702,251.957 134.369,252.624 134.5,253.5C 134.167,253.5 133.833,253.5 133.5,253.5C 133.334,249.154 133.501,244.821 134,240.5C 135.045,239.627 135.878,238.627 136.5,237.5C 152.634,228.933 168.634,220.099 184.5,211C 189.975,210.728 194.975,212.228 199.5,215.5 Z"/></g>
<g><path style="opacity:0.368" fill="#f0f0f0" d="M 262.5,240.5 C 262.5,240.833 262.5,241.167 262.5,241.5C 261.504,257.658 261.17,273.991 261.5,290.5C 259.873,280.722 259.04,270.722 259,260.5C 258.073,253.338 255.073,247.338 250,242.5C 249.127,242.265 248.293,241.931 247.5,241.5C 246.378,242.63 245.044,243.297 243.5,243.5C 243.672,242.508 243.338,241.842 242.5,241.5C 242.586,240.504 242.252,239.671 241.5,239C 228.939,231.887 216.272,225.054 203.5,218.5C 202.167,217.5 200.833,216.5 199.5,215.5C 201.164,214.001 203.164,213.001 205.5,212.5C 207.432,213.52 209.432,213.687 211.5,213C 210.167,212.333 208.833,211.667 207.5,211C 210.515,210.799 213.515,211.132 216.5,212C 230.326,219.079 243.992,226.412 257.5,234C 258.711,235.113 258.711,236.28 257.5,237.5C 258.94,238.952 260.606,239.952 262.5,240.5 Z"/></g>
<g><path style="opacity:1" fill="#0e1012" d="M 79.5,214.5 C 84.0006,216.916 88.3339,219.583 92.5,222.5C 82.4072,219.889 73.0739,222.055 64.5,229C 62.8333,231.333 61.1667,233.667 59.5,236C 45.057,236.146 32.2237,240.646 21,249.5C 19.3333,251.833 17.6667,254.167 16,256.5C 15.5006,250.843 15.3339,245.176 15.5,239.5C 16.5736,238.115 17.9069,236.949 19.5,236C 35.3276,227.587 50.9942,218.92 66.5,210C 68.1667,209.333 69.8333,209.333 71.5,210C 74.0321,211.765 76.6987,213.265 79.5,214.5 Z"/></g>
<g><path style="opacity:1" fill="#132c14" d="M 203.5,218.5 C 216.272,225.054 228.939,231.887 241.5,239C 242.252,239.671 242.586,240.504 242.5,241.5C 242.5,243.167 242.5,244.833 242.5,246.5C 241.178,246.33 240.011,246.663 239,247.5C 230.799,239.649 221.633,233.149 211.5,228C 207.886,227.064 204.22,226.564 200.5,226.5C 199.833,225.833 199.167,225.167 198.5,224.5C 198.24,222.405 197.074,221.072 195,220.5C 190.226,221.636 185.726,223.469 181.5,226C 174.011,232.656 167.011,239.823 160.5,247.5C 154.282,250.442 147.949,253.109 141.5,255.5C 142.428,256.768 142.595,258.101 142,259.5C 138.096,259.082 135.596,257.082 134.5,253.5C 134.369,252.624 134.702,251.957 135.5,251.5C 138.167,252.833 138.833,252.167 137.5,249.5C 143.742,248.94 149.742,247.44 155.5,245C 162.04,236.416 169.373,228.583 177.5,221.5C 181.94,218.946 186.606,216.946 191.5,215.5C 193.571,216.286 195.238,217.619 196.5,219.5C 198.965,219.057 201.298,218.724 203.5,218.5 Z"/></g>
<g><path style="opacity:1" fill="#121719" d="M 92.5,222.5 C 101.27,226.719 109.937,231.219 118.5,236C 121.079,237.076 122.746,238.909 123.5,241.5C 123.5,245.167 123.5,248.833 123.5,252.5C 115.99,248.88 108.323,246.713 100.5,246C 97.4105,232.996 89.0772,227.996 75.5,231C 70.2305,233.545 66.5638,237.545 64.5,243C 52.975,242.183 41.975,244.85 31.5,251C 24.5128,256.417 21.1795,263.584 21.5,272.5C 22.907,286.021 25.2403,299.355 28.5,312.5C 25.3191,314.837 21.9858,317.004 18.5,319C 17.0715,319.579 15.7382,319.412 14.5,318.5C 14.1688,291.995 14.5022,265.661 15.5,239.5C 15.3339,245.176 15.5006,250.843 16,256.5C 17.6667,254.167 19.3333,251.833 21,249.5C 32.2237,240.646 45.057,236.146 59.5,236C 61.1667,233.667 62.8333,231.333 64.5,229C 73.0739,222.055 82.4072,219.889 92.5,222.5 Z"/></g>
<g><path style="opacity:1" fill="#183819" d="M 198.5,224.5 C 188.865,225.568 181.032,229.901 175,237.5C 172.069,242.267 168.569,246.601 164.5,250.5C 157.378,253.315 150.378,256.315 143.5,259.5C 144.747,261.323 145.414,263.323 145.5,265.5C 141.071,266.113 137.405,264.78 134.5,261.5C 134.672,260.508 134.338,259.842 133.5,259.5C 133.5,257.833 133.5,256.167 133.5,254.5C 133.5,254.167 133.5,253.833 133.5,253.5C 133.833,253.5 134.167,253.5 134.5,253.5C 135.596,257.082 138.096,259.082 142,259.5C 142.595,258.101 142.428,256.768 141.5,255.5C 147.949,253.109 154.282,250.442 160.5,247.5C 167.011,239.823 174.011,232.656 181.5,226C 185.726,223.469 190.226,221.636 195,220.5C 197.074,221.072 198.24,222.405 198.5,224.5 Z"/></g>
<g><path style="opacity:1" fill="#13181a" d="M 486.5,236.5 C 487.694,237.272 488.694,238.272 489.5,239.5C 489.663,241.857 489.497,244.19 489,246.5C 477.771,238.301 465.605,231.801 452.5,227C 444.119,225.348 436.453,227.015 429.5,232C 422.54,237.292 415.873,242.958 409.5,249C 402.539,254.899 397.539,261.732 394.5,269.5C 395.39,270.711 395.39,272.045 394.5,273.5C 396.225,277.878 396.392,282.211 395,286.5C 394.667,286.167 394.333,285.833 394,285.5C 393.667,287.167 393.333,288.833 393,290.5C 392.667,290.167 392.333,289.833 392,289.5C 391.305,294.299 388.805,295.632 384.5,293.5C 384.482,290.264 383.482,287.597 381.5,285.5C 381.5,270.833 381.5,256.167 381.5,241.5C 381.557,240.391 381.89,239.391 382.5,238.5C 383.71,238.068 384.71,237.401 385.5,236.5C 389.201,234.988 392.534,232.988 395.5,230.5C 408.823,223.518 422.156,216.518 435.5,209.5C 452.675,218.253 469.675,227.253 486.5,236.5 Z"/></g>
<g><path style="opacity:0.912" fill="#bdbebe" d="M 389.5,151.5 C 389.657,152.873 389.49,154.207 389,155.5C 385.692,157.768 382.359,160.768 379,164.5C 378.489,166.878 377.822,169.212 377,171.5C 373.737,190.531 373.737,209.531 377,228.5C 377.739,229.574 378.739,230.241 380,230.5C 386.772,227.707 392.272,223.374 396.5,217.5C 392.794,223.72 388.461,229.553 383.5,235C 384.044,235.717 384.711,236.217 385.5,236.5C 384.71,237.401 383.71,238.068 382.5,238.5C 380.362,238.062 378.028,237.895 375.5,238C 374.283,236.352 373.45,234.519 373,232.5C 372.333,253.833 372.333,275.167 373,296.5C 375.499,295.202 377.833,295.536 380,297.5C 380.168,278.662 380.668,259.996 381.5,241.5C 381.5,256.167 381.5,270.833 381.5,285.5C 381.5,289.833 381.5,294.167 381.5,298.5C 378.167,299.833 374.833,299.833 371.5,298.5C 371.5,256.5 371.5,214.5 371.5,172.5C 371.5,167.167 371.5,161.833 371.5,156.5C 372.268,157.263 372.768,158.263 373,159.5C 375.245,154.734 379.078,152.568 384.5,153C 384.727,151.865 385.06,150.698 385.5,149.5C 386.86,150.18 388.193,150.847 389.5,151.5 Z"/></g>
<g><path style="opacity:0.473" fill="#dedede" d="M 403.5,205.5 C 401.514,209.172 400.347,213.172 400,217.5C 396.79,221.251 395.29,225.584 395.5,230.5C 392.534,232.988 389.201,234.988 385.5,236.5C 384.711,236.217 384.044,235.717 383.5,235C 388.461,229.553 392.794,223.72 396.5,217.5C 397.663,213.65 399.33,209.983 401.5,206.5C 401.957,205.702 402.624,205.369 403.5,205.5 Z"/></g>
<g><path style="opacity:1" fill="#143716" d="M 200.5,227.5 C 200.5,227.167 200.5,226.833 200.5,226.5C 204.22,226.564 207.886,227.064 211.5,228C 221.633,233.149 230.799,239.649 239,247.5C 240.011,246.663 241.178,246.33 242.5,246.5C 242.5,248.833 242.5,251.167 242.5,253.5C 241.185,252.524 239.852,251.524 238.5,250.5C 237.549,251.326 236.549,251.492 235.5,251C 229.435,245.261 223.101,239.928 216.5,235C 212.108,232.591 207.442,231.091 202.5,230.5C 202.5,229.833 202.167,229.5 201.5,229.5C 201.672,228.508 201.338,227.842 200.5,227.5 Z"/></g>
<g><path style="opacity:1" fill="#1a2125" d="M 123.5,252.5 C 123.5,254.833 123.5,257.167 123.5,259.5C 118.715,257.382 113.715,255.716 108.5,254.5C 103.516,254.355 98.5162,255.022 93.5,256.5C 85.7871,251.221 77.6204,246.555 69,242.5C 64.3588,245.237 59.5255,247.571 54.5,249.5C 36.1751,249.695 26.8417,258.528 26.5,276C 28.3777,287.026 31.711,297.526 36.5,307.5C 35.8333,308.167 35.1667,308.833 34.5,309.5C 32.5,310.5 30.5,311.5 28.5,312.5C 25.2403,299.355 22.907,286.021 21.5,272.5C 21.1795,263.584 24.5128,256.417 31.5,251C 41.975,244.85 52.975,242.183 64.5,243C 66.5638,237.545 70.2305,233.545 75.5,231C 89.0772,227.996 97.4105,232.996 100.5,246C 108.323,246.713 115.99,248.88 123.5,252.5 Z"/></g>
<g><path style="opacity:1" fill="#2d692f" d="M 203.5,232.5 C 204.674,233.514 205.34,234.847 205.5,236.5C 197.192,234.987 191.525,238.153 188.5,246C 189.456,252.301 192.79,256.967 198.5,260C 205.912,265.717 214.078,268.217 223,267.5C 223.464,266.906 223.631,266.239 223.5,265.5C 227.988,271.799 231.988,278.466 235.5,285.5C 227.348,286.645 219.348,285.479 211.5,282C 200.874,273.696 191.541,264.696 183.5,255C 182.577,241.117 189.244,233.617 203.5,232.5 Z"/></g>
<g><path style="opacity:0.897" fill="#d2d2d2" d="M 382.5,238.5 C 381.89,239.391 381.557,240.391 381.5,241.5C 380.668,259.996 380.168,278.662 380,297.5C 377.833,295.536 375.499,295.202 373,296.5C 372.333,275.167 372.333,253.833 373,232.5C 373.45,234.519 374.283,236.352 375.5,238C 378.028,237.895 380.362,238.062 382.5,238.5 Z"/></g>
<g><path style="opacity:1" fill="#337736" d="M 205.5,236.5 C 212.237,245.627 218.237,255.294 223.5,265.5C 223.631,266.239 223.464,266.906 223,267.5C 214.078,268.217 205.912,265.717 198.5,260C 192.79,256.967 189.456,252.301 188.5,246C 191.525,238.153 197.192,234.987 205.5,236.5 Z"/></g>
<g><path style="opacity:0.372" fill="#dbdbdb" d="M 507.5,235.5 C 507.649,236.552 507.483,237.552 507,238.5C 503.656,240.004 500.656,242.004 498,244.5C 495.971,248.58 493.471,252.246 490.5,255.5C 490.5,254.167 490.5,252.833 490.5,251.5C 490.817,247.298 490.483,243.298 489.5,239.5C 488.694,238.272 487.694,237.272 486.5,236.5C 491.736,233.535 496.736,233.201 501.5,235.5C 501.5,234.167 501.5,232.833 501.5,231.5C 503.565,232.857 505.565,234.19 507.5,235.5 Z"/></g>
<g><path style="opacity:0.083" fill="#000000" d="M 510.5,236.5 C 510.833,236.5 511.167,236.5 511.5,236.5C 511.5,259.167 511.5,281.833 511.5,304.5C 504.61,307.862 498.11,311.862 492,316.5C 492.39,324.48 492.39,332.48 492,340.5C 491.967,345.104 490.467,349.104 487.5,352.5C 480.329,356.92 472.996,361.086 465.5,365C 453.167,368.333 440.833,368.333 428.5,365C 415.112,357.306 401.446,350.139 387.5,343.5C 373.586,350.124 359.919,357.291 346.5,365C 330.945,369.214 315.945,367.881 301.5,361C 290.167,354.667 278.833,348.333 267.5,342C 262.72,340.97 258.387,341.97 254.5,345C 242.5,351.667 230.5,358.333 218.5,365C 205.5,368.333 192.5,368.333 179.5,365C 170.954,360.227 162.287,355.727 153.5,351.5C 150.086,353.538 146.42,355.038 142.5,356C 132.357,357.085 122.357,356.418 112.5,354C 103.556,349.615 95.3898,344.115 88,337.5C 86.228,333.687 85.3947,329.687 85.5,325.5C 86.1667,325.833 86.8333,326.167 87.5,326.5C 87.8417,327.338 88.5084,327.672 89.5,327.5C 89.8417,328.338 90.5084,328.672 91.5,328.5C 94.4937,331 97.827,333 101.5,334.5C 110.432,338.266 119.432,338.266 128.5,334.5C 129.167,334.833 129.833,335.167 130.5,335.5C 134.213,334.226 137.713,332.56 141,330.5C 148.967,335.344 158.133,340.511 168.5,346C 172.091,347.152 175.758,347.985 179.5,348.5C 187.534,347.515 195.534,346.348 203.5,345C 219.73,336.635 235.897,328.135 252,319.5C 267.042,328.944 282.542,337.777 298.5,346C 304.158,347.403 309.825,347.903 315.5,347.5C 321.568,346.655 327.568,345.489 333.5,344C 344.66,338.254 355.66,332.254 366.5,326C 371.72,321.961 377.053,321.627 382.5,325C 381.167,325.667 381.167,326.333 382.5,327C 394.007,333.588 405.674,339.921 417.5,346C 435.42,349.341 452.087,346.007 467.5,336C 476.37,335.617 480.703,330.784 480.5,321.5C 481.959,315.485 481.459,309.485 479,303.5C 477.89,301.963 476.39,301.297 474.5,301.5C 473.731,298.829 473.398,296.329 473.5,294C 478.788,289.377 484.788,286.044 491.5,284C 495.639,281.361 499.639,278.528 503.5,275.5C 504.831,272.166 506.665,269.166 509,266.5C 509.498,263.518 509.665,260.518 509.5,257.5C 509.5,255.167 509.5,252.833 509.5,250.5C 510.051,247.193 510.384,243.86 510.5,240.5C 510.5,239.167 510.5,237.833 510.5,236.5 Z"/></g>
<g><path style="opacity:1" fill="#283339" d="M 490.5,251.5 C 490.5,252.833 490.5,254.167 490.5,255.5C 490.5,257.833 490.5,260.167 490.5,262.5C 489.833,263.5 489.167,264.5 488.5,265.5C 480.532,269.484 472.865,273.984 465.5,279C 463.735,279.64 462.068,279.473 460.5,278.5C 460.5,276.833 460.5,275.167 460.5,273.5C 460.81,267.242 460.476,261.076 459.5,255C 451.73,250.699 443.897,246.532 436,242.5C 430.597,245.411 425.097,248.078 419.5,250.5C 419.414,249.504 419.748,248.671 420.5,248C 423.754,246.993 425.754,244.827 426.5,241.5C 430.833,240.163 434.833,237.997 438.5,235C 443.428,233.582 448.428,233.249 453.5,234C 462.167,238.333 470.833,242.667 479.5,247C 482.949,249.482 486.116,252.315 489,255.5C 489.21,253.942 489.71,252.609 490.5,251.5 Z"/></g>
<g><path style="opacity:1" fill="#1d441e" d="M 198.5,224.5 C 199.167,225.167 199.833,225.833 200.5,226.5C 200.5,226.833 200.5,227.167 200.5,227.5C 191.126,227.937 183.626,231.937 178,239.5C 174.992,244.85 171.492,249.85 167.5,254.5C 160.413,256.194 153.746,258.861 147.5,262.5C 146.769,264.401 146.769,266.401 147.5,268.5C 140.708,270.606 136.375,268.272 134.5,261.5C 137.405,264.78 141.071,266.113 145.5,265.5C 145.414,263.323 144.747,261.323 143.5,259.5C 150.378,256.315 157.378,253.315 164.5,250.5C 168.569,246.601 172.069,242.267 175,237.5C 181.032,229.901 188.865,225.568 198.5,224.5 Z"/></g>
<g><path style="opacity:1" fill="#1a2125" d="M 489.5,239.5 C 490.483,243.298 490.817,247.298 490.5,251.5C 489.71,252.609 489.21,253.942 489,255.5C 486.116,252.315 482.949,249.482 479.5,247C 470.833,242.667 462.167,238.333 453.5,234C 448.428,233.249 443.428,233.582 438.5,235C 434.833,237.997 430.833,240.163 426.5,241.5C 425.754,244.827 423.754,246.993 420.5,248C 419.748,248.671 419.414,249.504 419.5,250.5C 417.324,252.515 414.824,254.182 412,255.5C 411.333,264.833 411.333,274.167 412,283.5C 415.485,285.15 418.651,287.15 421.5,289.5C 419.734,298.235 421.901,305.235 428,310.5C 428.333,310.167 428.667,309.833 429,309.5C 435.335,315.004 442.501,319.004 450.5,321.5C 447.202,323.485 443.869,325.485 440.5,327.5C 437.5,328.833 434.5,328.833 431.5,327.5C 414.435,318.308 397.768,308.642 381.5,298.5C 381.5,294.167 381.5,289.833 381.5,285.5C 383.482,287.597 384.482,290.264 384.5,293.5C 388.805,295.632 391.305,294.299 392,289.5C 392.333,289.833 392.667,290.167 393,290.5C 393.333,288.833 393.667,287.167 394,285.5C 394.333,285.833 394.667,286.167 395,286.5C 396.392,282.211 396.225,277.878 394.5,273.5C 395.39,272.045 395.39,270.711 394.5,269.5C 397.539,261.732 402.539,254.899 409.5,249C 415.873,242.958 422.54,237.292 429.5,232C 436.453,227.015 444.119,225.348 452.5,227C 465.605,231.801 477.771,238.301 489,246.5C 489.497,244.19 489.663,241.857 489.5,239.5 Z"/></g>
<g><path style="opacity:0.903" fill="#cbcbcb" d="M 331.5,250.5 C 334.719,252.027 337.885,253.693 341,255.5C 341.498,258.817 341.665,262.15 341.5,265.5C 340.171,273.81 335.171,277.81 326.5,277.5C 326.5,277.167 326.5,276.833 326.5,276.5C 336.299,274.847 339.799,269.181 337,259.5C 335.023,256.688 332.856,254.022 330.5,251.5C 330.624,250.893 330.957,250.56 331.5,250.5 Z"/></g>
<g><path style="opacity:0.655" fill="#b1b1b1" d="M 507.5,235.5 C 507.833,235.5 508.167,235.5 508.5,235.5C 508.539,236.583 508.873,237.583 509.5,238.5C 508.081,240.336 506.914,242.336 506,244.5C 500.934,249.571 496.601,255.238 493,261.5C 492.329,262.252 491.496,262.586 490.5,262.5C 490.5,260.167 490.5,257.833 490.5,255.5C 493.471,252.246 495.971,248.58 498,244.5C 500.656,242.004 503.656,240.004 507,238.5C 507.483,237.552 507.649,236.552 507.5,235.5 Z"/></g>
<g><path style="opacity:1" fill="#252f34" d="M 54.5,249.5 C 51.6512,251.85 48.4845,253.85 45,255.5C 44.5001,270.496 44.3334,285.496 44.5,300.5C 43.1227,304.205 40.456,306.539 36.5,307.5C 31.711,297.526 28.3777,287.026 26.5,276C 26.8417,258.528 36.1751,249.695 54.5,249.5 Z"/></g>
<g><path style="opacity:0.648" fill="#afafaf" d="M 460.5,273.5 C 460.5,275.167 460.5,276.833 460.5,278.5C 453.891,276.611 448.058,277.945 443,282.5C 442.125,283.873 441.625,285.373 441.5,287C 445.966,294.325 452.633,298.158 461.5,298.5C 463.968,302.48 467.468,305.147 472,306.5C 473.25,309.077 473.584,311.743 473,314.5C 469.061,315.423 465.894,317.59 463.5,321C 456.822,324.034 449.989,326.534 443,328.5C 441.93,328.472 441.097,328.139 440.5,327.5C 443.869,325.485 447.202,323.485 450.5,321.5C 454.14,319.68 457.807,317.847 461.5,316C 462.38,314.644 462.714,313.144 462.5,311.5C 463.814,315.448 465.314,315.448 467,311.5C 467.667,310.5 467.667,309.5 467,308.5C 461.614,302.851 455.114,299.018 447.5,297C 442.921,294.298 439.088,290.798 436,286.5C 436.064,284.044 435.898,281.711 435.5,279.5C 438.758,278.092 441.924,276.426 445,274.5C 445.667,271.167 445.667,267.833 445,264.5C 443.887,263.695 442.721,263.028 441.5,262.5C 442.919,261.549 444.585,261.216 446.5,261.5C 447.154,257.317 445.488,254.484 441.5,253C 430.859,251.07 423.026,254.904 418,264.5C 416.378,269.407 417.712,273.074 422,275.5C 423.371,273.959 424.871,272.625 426.5,271.5C 426.433,272.959 426.766,274.292 427.5,275.5C 422.578,279.917 418.744,278.917 416,272.5C 415.738,258.258 422.905,250.925 437.5,250.5C 442.667,251.054 447.167,253.054 451,256.5C 453.607,261.38 455.94,266.38 458,271.5C 458.708,272.381 459.542,273.047 460.5,273.5 Z"/></g>
<g><path style="opacity:0.818" fill="#9f9f9f" d="M 441.5,262.5 C 439.598,261.632 437.765,260.632 436,259.5C 432.694,260.652 429.694,262.319 427,264.5C 426.503,266.81 426.337,269.143 426.5,271.5C 424.871,272.625 423.371,273.959 422,275.5C 417.712,273.074 416.378,269.407 418,264.5C 423.026,254.904 430.859,251.07 441.5,253C 445.488,254.484 447.154,257.317 446.5,261.5C 444.585,261.216 442.919,261.549 441.5,262.5 Z"/></g>
<g><path style="opacity:1" fill="#242e34" d="M 123.5,259.5 C 123.5,262.167 123.5,264.833 123.5,267.5C 120.842,266.449 118.342,265.115 116,263.5C 112.809,263.89 110.142,265.224 108,267.5C 108.857,281.627 109.691,295.793 110.5,310C 110.164,311.03 109.497,311.53 108.5,311.5C 106.716,311.107 105.05,310.441 103.5,309.5C 102.833,309.5 102.5,309.167 102.5,308.5C 103.823,305.062 104.49,301.229 104.5,297C 104.462,290.793 103.962,284.626 103,278.5C 100.195,272.612 97.5282,266.612 95,260.5C 94.5001,274.496 94.3334,288.496 94.5,302.5C 93.506,292.681 93.1726,282.681 93.5,272.5C 93.5,267.167 93.5,261.833 93.5,256.5C 98.5162,255.022 103.516,254.355 108.5,254.5C 113.715,255.716 118.715,257.382 123.5,259.5 Z"/></g>
<g><path style="opacity:0.725" fill="#b3b3b3" d="M 242.5,241.5 C 243.338,241.842 243.672,242.508 243.5,243.5C 243.334,250.508 243.5,257.508 244,264.5C 244.301,261.026 245.134,257.692 246.5,254.5C 248.998,251.809 251.165,252.142 253,255.5C 256.689,266.162 258.355,277.162 258,288.5C 258.376,291.01 259.21,293.343 260.5,295.5C 261.452,293.955 261.785,292.288 261.5,290.5C 261.17,273.991 261.504,257.658 262.5,241.5C 262.333,260.836 262.5,280.17 263,299.5C 263.383,300.056 263.883,300.389 264.5,300.5C 266.181,302.008 268.181,303.008 270.5,303.5C 272.336,305.588 274.669,306.921 277.5,307.5C 288.969,314.404 300.635,321.071 312.5,327.5C 310.712,328.622 308.712,328.789 306.5,328C 299.968,323.589 292.968,319.922 285.5,317C 279.348,314.543 273.015,312.543 266.5,311C 264.333,308.833 262.167,306.667 260,304.5C 258.705,298.476 255.871,293.309 251.5,289C 250.365,288.251 249.365,288.417 248.5,289.5C 247.292,292.346 245.792,295.013 244,297.5C 243.814,294.964 243.314,292.631 242.5,290.5C 242.5,278.167 242.5,265.833 242.5,253.5C 242.5,251.167 242.5,248.833 242.5,246.5C 242.5,244.833 242.5,243.167 242.5,241.5 Z"/></g>
<g><path style="opacity:0.602" fill="#d2d2d2" d="M 261.5,290.5 C 261.785,292.288 261.452,293.955 260.5,295.5C 259.21,293.343 258.376,291.01 258,288.5C 258.355,277.162 256.689,266.162 253,255.5C 251.165,252.142 248.998,251.809 246.5,254.5C 245.134,257.692 244.301,261.026 244,264.5C 243.5,257.508 243.334,250.508 243.5,243.5C 245.044,243.297 246.378,242.63 247.5,241.5C 248.293,241.931 249.127,242.265 250,242.5C 255.073,247.338 258.073,253.338 259,260.5C 259.04,270.722 259.873,280.722 261.5,290.5 Z"/></g>
<g><path style="opacity:1" fill="#285c2a" d="M 201.5,229.5 C 202.167,229.5 202.5,229.833 202.5,230.5C 202.833,231.167 203.167,231.833 203.5,232.5C 189.244,233.617 182.577,241.117 183.5,255C 191.541,264.696 200.874,273.696 211.5,282C 219.348,285.479 227.348,286.645 235.5,285.5C 238.083,288.997 240.416,292.664 242.5,296.5C 242.607,298.903 241.607,300.736 239.5,302C 233.922,305.094 228.256,307.928 222.5,310.5C 217.433,310.311 212.766,308.811 208.5,306C 194.208,294.71 180.208,283.043 166.5,271C 164.518,271.775 162.518,271.608 160.5,270.5C 158.034,272.378 155.7,274.045 153.5,275.5C 152.356,273.9 151.189,272.233 150,270.5C 149.251,269.365 149.417,268.365 150.5,267.5C 154.937,264.116 159.937,262.116 165.5,261.5C 167.338,262.112 169.005,262.112 170.5,261.5C 172.332,262.248 173.999,263.248 175.5,264.5C 175.058,259.58 175.558,254.58 177,249.5C 179.259,243.97 182.259,238.97 186,234.5C 190.368,230.401 195.535,228.734 201.5,229.5 Z"/></g>
<g><path style="opacity:0.899" fill="#d3d3d3" d="M 124.5,253.5 C 127.061,255.371 129.561,257.371 132,259.5C 132.198,257.618 132.698,255.952 133.5,254.5C 133.5,256.167 133.5,257.833 133.5,259.5C 133.5,262.5 133.5,265.5 133.5,268.5C 133.5,278.833 133.5,289.167 133.5,299.5C 132.121,299.671 130.454,299.838 128.5,300C 126.667,300.5 125.5,301.667 125,303.5C 124.5,286.837 124.333,270.17 124.5,253.5 Z"/></g>
<g><path style="opacity:0.86" fill="#a6a6a6" d="M 329.5,249.5 C 330.492,249.328 331.158,249.662 331.5,250.5C 330.957,250.56 330.624,250.893 330.5,251.5C 332.856,254.022 335.023,256.688 337,259.5C 339.799,269.181 336.299,274.847 326.5,276.5C 336.664,269.375 336.997,261.875 327.5,254C 317.089,248.085 308.256,249.918 301,259.5C 293.66,272.82 297.493,280.486 312.5,282.5C 309.313,283.806 305.98,283.806 302.5,282.5C 292.879,272.389 293.212,262.556 303.5,253C 305.5,251.667 307.5,250.333 309.5,249C 314.5,248.333 319.5,248.333 324.5,249C 326.329,249.273 327.829,250.107 329,251.5C 329.464,250.906 329.631,250.239 329.5,249.5 Z"/></g>
<g><path style="opacity:0.876" fill="#bfbfbf" d="M 93.5,256.5 C 93.5,261.833 93.5,267.167 93.5,272.5C 89.5663,277.002 84.8997,280.835 79.5,284C 77.393,285.264 76.393,287.097 76.5,289.5C 75.6708,294.453 75.3375,299.453 75.5,304.5C 74.0268,297.187 74.3602,289.853 76.5,282.5C 79.5314,278.483 83.0314,274.816 87,271.5C 87.7262,266.761 87.3929,262.095 86,257.5C 83.3315,256.253 81.4981,254.253 80.5,251.5C 65.8095,245.263 54.9762,249.263 48,263.5C 47.6667,273.5 47.3333,283.5 47,293.5C 46.6097,296.104 45.7763,298.438 44.5,300.5C 44.3334,285.496 44.5001,270.496 45,255.5C 48.4845,253.85 51.6512,251.85 54.5,249.5C 59.5255,247.571 64.3588,245.237 69,242.5C 77.6204,246.555 85.7871,251.221 93.5,256.5 Z"/></g>
<g><path style="opacity:0.08" fill="#000000" d="M 73.5,280.5 C 73.5,282.167 73.5,283.833 73.5,285.5C 73.3337,292.508 73.5004,299.508 74,306.5C 74.1909,308.708 74.6909,310.708 75.5,312.5C 75.5,313.5 75.5,314.5 75.5,315.5C 75.7396,323.062 74.573,330.395 72,337.5C 63.7312,344.719 54.5646,350.553 44.5,355C 34.1667,357 23.8333,357 13.5,355C 11,353.833 9.16667,352 8,349.5C 6.58769,345.272 5.75436,340.939 5.5,336.5C 6.16667,336.5 6.83333,336.5 7.5,336.5C 7.84171,337.338 8.50838,337.672 9.5,337.5C 27.2945,337.512 42.7945,331.512 56,319.5C 56.3333,319.833 56.6667,320.167 57,320.5C 58,318.833 59,317.167 60,315.5C 60.3333,316.5 60.6667,317.5 61,318.5C 62.6156,314.653 63.6156,310.653 64,306.5C 64.5269,294.807 64.5269,283.14 64,271.5C 64.3095,270.234 64.8095,269.067 65.5,268C 67.8333,267.333 70.1667,267.333 72.5,268C 73.4637,272.066 73.797,276.233 73.5,280.5 Z"/></g>
<g><path style="opacity:1" fill="#1a2125" d="M 102.5,308.5 C 99.0787,307.461 96.4121,305.461 94.5,302.5C 94.3334,288.496 94.5001,274.496 95,260.5C 97.5282,266.612 100.195,272.612 103,278.5C 103.962,284.626 104.462,290.793 104.5,297C 104.49,301.229 103.823,305.062 102.5,308.5 Z"/></g>
<g><path style="opacity:1" fill="#1d451f" d="M 441.5,262.5 C 442.721,263.028 443.887,263.695 445,264.5C 445.667,267.833 445.667,271.167 445,274.5C 441.924,276.426 438.758,278.092 435.5,279.5C 432.807,278.153 430.14,276.82 427.5,275.5C 426.766,274.292 426.433,272.959 426.5,271.5C 426.337,269.143 426.503,266.81 427,264.5C 429.694,262.319 432.694,260.652 436,259.5C 437.765,260.632 439.598,261.632 441.5,262.5 Z"/></g>
<g><path style="opacity:0.776" fill="#858585" d="M 81.5,272.5 C 84.6825,263.706 82.0158,257.539 73.5,254C 69.9733,253.192 66.6399,253.359 63.5,254.5C 58.0203,255.839 54.187,259.173 52,264.5C 51.6667,273.833 51.3333,283.167 51,292.5C 50.2432,294.315 49.4098,295.981 48.5,297.5C 49.2407,286.525 49.7407,275.525 50,264.5C 51.243,258.917 54.4097,254.751 59.5,252C 71.1648,247.341 79.6648,250.508 85,261.5C 86.3372,266.084 85.1705,269.751 81.5,272.5 Z"/></g>
<g><path style="opacity:1" fill="#1d4e20" d="M 202.5,230.5 C 207.442,231.091 212.108,232.591 216.5,235C 223.101,239.928 229.435,245.261 235.5,251C 236.549,251.492 237.549,251.326 238.5,250.5C 239.852,251.524 241.185,252.524 242.5,253.5C 242.5,265.833 242.5,278.167 242.5,290.5C 242.5,292.5 242.5,294.5 242.5,296.5C 240.416,292.664 238.083,288.997 235.5,285.5C 231.988,278.466 227.988,271.799 223.5,265.5C 218.237,255.294 212.237,245.627 205.5,236.5C 205.34,234.847 204.674,233.514 203.5,232.5C 203.167,231.833 202.833,231.167 202.5,230.5 Z"/></g>
<g><path style="opacity:0.405" fill="#212121" d="M 509.5,257.5 C 509.665,260.518 509.498,263.518 509,266.5C 506.665,269.166 504.831,272.166 503.5,275.5C 499.639,278.528 495.639,281.361 491.5,284C 484.788,286.044 478.788,289.377 473.5,294C 473.398,296.329 473.731,298.829 474.5,301.5C 476.39,301.297 477.89,301.963 479,303.5C 481.459,309.485 481.959,315.485 480.5,321.5C 480.631,320.761 480.464,320.094 480,319.5C 479.602,324.585 477.435,328.585 473.5,331.5C 472.914,331.291 472.414,330.957 472,330.5C 459.088,335.36 446.088,340.027 433,344.5C 428.481,343.789 423.981,342.956 419.5,342C 403.914,333.802 388.748,325.302 374,316.5C 367.591,319.285 361.091,321.951 354.5,324.5C 356.8,321.676 359.8,319.843 363.5,319C 364.167,318 364.833,317 365.5,316C 369.539,313.95 373.872,313.116 378.5,313.5C 380.581,314.99 382.914,315.99 385.5,316.5C 386.607,319.369 388.607,321.369 391.5,322.5C 392.386,323.325 392.719,324.325 392.5,325.5C 396.416,324.961 399.416,326.294 401.5,329.5C 407.103,332.975 412.769,336.475 418.5,340C 422.611,340.941 426.778,341.441 431,341.5C 445.477,338.79 458.977,333.79 471.5,326.5C 479.213,322.018 481.547,315.685 478.5,307.5C 473.741,302.973 470.908,297.639 470,291.5C 472.228,289.032 475.062,287.865 478.5,288C 484.338,281.82 491.004,276.82 498.5,273C 502.62,269.723 505.287,265.556 506.5,260.5C 507.288,259.23 508.288,258.23 509.5,257.5 Z"/></g>
<g><path style="opacity:1" fill="#2c3a40" d="M 123.5,267.5 C 123.5,280.833 123.5,294.167 123.5,307.5C 123.5,310.167 123.5,312.833 123.5,315.5C 123.5,316.5 123.5,317.5 123.5,318.5C 122.167,318.5 120.833,318.5 119.5,318.5C 117.167,317.167 114.833,315.833 112.5,314.5C 111.128,313.488 109.795,312.488 108.5,311.5C 109.497,311.53 110.164,311.03 110.5,310C 109.691,295.793 108.857,281.627 108,267.5C 110.142,265.224 112.809,263.89 116,263.5C 118.342,265.115 120.842,266.449 123.5,267.5 Z"/></g>
<g><path style="opacity:0.314" fill="#858585" d="M 326.5,276.5 C 326.5,276.833 326.5,277.167 326.5,277.5C 321.788,279.181 317.122,280.847 312.5,282.5C 297.493,280.486 293.66,272.82 301,259.5C 308.256,249.918 317.089,248.085 327.5,254C 336.997,261.875 336.664,269.375 326.5,276.5 Z"/></g>
<g><path style="opacity:0.235" fill="#575757" d="M 323.5,257.5 C 325.371,257.859 326.871,258.859 328,260.5C 329.817,270.021 325.984,275.854 316.5,278C 312.449,278.518 308.449,278.184 304.5,277C 298.49,267.718 300.49,260.385 310.5,255C 313.833,254.333 317.167,254.333 320.5,255C 322.119,255.236 323.119,256.069 323.5,257.5 Z"/></g>
<g><path style="opacity:0.549" fill="#434343" d="M 323.5,257.5 C 325.012,260.339 326.012,263.339 326.5,266.5C 326.841,269.818 325.508,272.152 322.5,273.5C 326.985,262.502 323.318,258.002 311.5,260C 307.057,263.062 305.557,267.229 307,272.5C 309.984,275.1 313.484,276.1 317.5,275.5C 307.564,278.387 302.73,274.72 303,264.5C 307.859,256.775 314.693,254.442 323.5,257.5 Z"/></g>
<g><path style="opacity:0.565" fill="#282828" d="M 322.5,273.5 C 321.22,274.931 319.553,275.598 317.5,275.5C 313.484,276.1 309.984,275.1 307,272.5C 305.557,267.229 307.057,263.062 311.5,260C 323.318,258.002 326.985,262.502 322.5,273.5 Z"/></g>
<g><path style="opacity:0.487" fill="#111111" d="M 315.5,262.5 C 323.064,264.021 324.397,267.855 319.5,274C 312.369,275.529 308.869,272.696 309,265.5C 311.294,264.578 313.461,263.578 315.5,262.5 Z"/></g>
<g><path style="opacity:1" fill="#2e6b31" d="M 222.5,310.5 C 217.498,314.003 212.165,317.003 206.5,319.5C 206.752,316.68 206.252,314.014 205,311.5C 193.285,299.451 180.118,289.285 165.5,281C 162.633,280.199 159.966,280.366 157.5,281.5C 157.167,281.5 156.833,281.5 156.5,281.5C 155.5,279.5 154.5,277.5 153.5,275.5C 155.7,274.045 158.034,272.378 160.5,270.5C 162.518,271.608 164.518,271.775 166.5,271C 180.208,283.043 194.208,294.71 208.5,306C 212.766,308.811 217.433,310.311 222.5,310.5 Z"/></g>
<g><path style="opacity:0.902" fill="#c9c9c9" d="M 460.5,273.5 C 459.542,273.047 458.708,272.381 458,271.5C 455.94,266.38 453.607,261.38 451,256.5C 447.167,253.054 442.667,251.054 437.5,250.5C 422.905,250.925 415.738,258.258 416,272.5C 418.744,278.917 422.578,279.917 427.5,275.5C 430.14,276.82 432.807,278.153 435.5,279.5C 435.898,281.711 436.064,284.044 436,286.5C 439.088,290.798 442.921,294.298 447.5,297C 455.114,299.018 461.614,302.851 467,308.5C 467.667,309.5 467.667,310.5 467,311.5C 465.314,315.448 463.814,315.448 462.5,311.5C 449.318,303.407 435.652,296.074 421.5,289.5C 418.651,287.15 415.485,285.15 412,283.5C 411.333,274.167 411.333,264.833 412,255.5C 414.824,254.182 417.324,252.515 419.5,250.5C 425.097,248.078 430.597,245.411 436,242.5C 443.897,246.532 451.73,250.699 459.5,255C 460.476,261.076 460.81,267.242 460.5,273.5 Z"/></g>
<g><path style="opacity:1" fill="#1f4f21" d="M 200.5,227.5 C 201.338,227.842 201.672,228.508 201.5,229.5C 195.535,228.734 190.368,230.401 186,234.5C 182.259,238.97 179.259,243.97 177,249.5C 175.558,254.58 175.058,259.58 175.5,264.5C 173.999,263.248 172.332,262.248 170.5,261.5C 169.005,262.112 167.338,262.112 165.5,261.5C 159.937,262.116 154.937,264.116 150.5,267.5C 149.417,268.365 149.251,269.365 150,270.5C 151.189,272.233 152.356,273.9 153.5,275.5C 154.5,277.5 155.5,279.5 156.5,281.5C 156.611,283.648 155.944,283.981 154.5,282.5C 149.178,286.324 144.345,290.657 140,295.5C 136.895,292.678 136.729,289.678 139.5,286.5C 135.718,280.971 133.718,274.971 133.5,268.5C 133.5,265.5 133.5,262.5 133.5,259.5C 134.338,259.842 134.672,260.508 134.5,261.5C 136.375,268.272 140.708,270.606 147.5,268.5C 146.769,266.401 146.769,264.401 147.5,262.5C 153.746,258.861 160.413,256.194 167.5,254.5C 171.492,249.85 174.992,244.85 178,239.5C 183.626,231.937 191.126,227.937 200.5,227.5 Z"/></g>
<g><path style="opacity:0.902" fill="#c4c5c5" d="M 329.5,249.5 C 329.631,250.239 329.464,250.906 329,251.5C 327.829,250.107 326.329,249.273 324.5,249C 319.5,248.333 314.5,248.333 309.5,249C 307.5,250.333 305.5,251.667 303.5,253C 293.212,262.556 292.879,272.389 302.5,282.5C 305.98,283.806 309.313,283.806 312.5,282.5C 317.122,280.847 321.788,279.181 326.5,277.5C 324.073,279.558 321.407,281.391 318.5,283C 315.307,287.593 310.973,290.093 305.5,290.5C 304.167,289.833 302.833,289.167 301.5,288.5C 298.812,286.734 295.979,285.067 293,283.5C 292.5,274.173 292.334,264.839 292.5,255.5C 300.576,251.045 308.743,246.711 317,242.5C 321.618,244.221 325.784,246.554 329.5,249.5 Z"/></g>
<g><path style="opacity:0.09" fill="#6a6a6a" d="M 63.5,254.5 C 66.6399,253.359 69.9733,253.192 73.5,254C 82.0158,257.539 84.6825,263.706 81.5,272.5C 79.8333,275.833 78.1667,279.167 76.5,282.5C 74.3602,289.853 74.0268,297.187 75.5,304.5C 75.5,307.167 75.5,309.833 75.5,312.5C 74.6909,310.708 74.1909,308.708 74,306.5C 73.5004,299.508 73.3337,292.508 73.5,285.5C 74.6834,282.433 76.0167,279.433 77.5,276.5C 84.76,261.741 80.0933,254.408 63.5,254.5 Z"/></g>
<g><path style="opacity:0.502" fill="#979898" d="M 488.5,265.5 C 489.525,265.897 489.692,266.563 489,267.5C 484.5,271.333 480,275.167 475.5,279C 471.613,279.618 467.946,280.784 464.5,282.5C 458.938,280.811 453.272,280.311 447.5,281C 442.621,283.758 442.288,287.091 446.5,291C 451.324,294.079 456.324,296.579 461.5,298.5C 452.633,298.158 445.966,294.325 441.5,287C 441.625,285.373 442.125,283.873 443,282.5C 448.058,277.945 453.891,276.611 460.5,278.5C 462.068,279.473 463.735,279.64 465.5,279C 472.865,273.984 480.532,269.484 488.5,265.5 Z"/></g>
<g><path style="opacity:0.616" fill="#ededed" d="M 341.5,265.5 C 341.5,271.167 341.5,276.833 341.5,282.5C 333.436,288.2 324.769,292.867 315.5,296.5C 312.451,294.137 309.118,292.137 305.5,290.5C 310.973,290.093 315.307,287.593 318.5,283C 321.407,281.391 324.073,279.558 326.5,277.5C 335.171,277.81 340.171,273.81 341.5,265.5 Z"/></g>
<g><path style="opacity:0.481" fill="#e9e9e9" d="M 93.5,272.5 C 93.1726,282.681 93.506,292.681 94.5,302.5C 96.4121,305.461 99.0787,307.461 102.5,308.5C 102.5,309.167 102.833,309.5 103.5,309.5C 100.023,310.323 96.3563,310.823 92.5,311C 88.9593,313.255 86.7926,316.421 86,320.5C 85.6174,319.944 85.1174,319.611 84.5,319.5C 84.5612,310.877 85.8945,302.544 88.5,294.5C 87.7308,291.49 86.8974,288.49 86,285.5C 84.0438,285.784 81.8771,285.784 79.5,285.5C 79.9118,287.973 78.9118,289.306 76.5,289.5C 76.393,287.097 77.393,285.264 79.5,284C 84.8997,280.835 89.5663,277.002 93.5,272.5 Z"/></g>
<g><path style="opacity:1" fill="#225825" d="M 133.5,268.5 C 133.718,274.971 135.718,280.971 139.5,286.5C 136.729,289.678 136.895,292.678 140,295.5C 144.345,290.657 149.178,286.324 154.5,282.5C 155.944,283.981 156.611,283.648 156.5,281.5C 156.833,281.5 157.167,281.5 157.5,281.5C 158.576,284.648 159.909,287.648 161.5,290.5C 160.345,290.578 159.012,290.912 157.5,291.5C 152.914,294.405 149.914,298.405 148.5,303.5C 148.728,305.207 149.062,306.874 149.5,308.5C 143.692,306.362 138.359,303.362 133.5,299.5C 133.5,289.167 133.5,278.833 133.5,268.5 Z"/></g>
<g><path style="opacity:0.185" fill="#1c1c1c" d="M 75.5,275.5 C 75.665,272.15 75.4983,268.817 75,265.5C 71.5922,262.613 68.0922,262.28 64.5,264.5C 62.9663,267.971 62.2996,271.638 62.5,275.5C 65.4992,289.892 63.4992,303.392 56.5,316C 53.6384,316.93 51.305,318.597 49.5,321C 47.2852,322.044 44.9519,322.71 42.5,323C 39.8607,325.483 36.8607,327.316 33.5,328.5C 41.7884,321.751 49.6218,314.418 57,306.5C 57.2532,303.21 58.2532,300.21 60,297.5C 60.6223,289.155 60.4556,280.821 59.5,272.5C 58.9384,262.225 63.605,258.391 73.5,261C 76.5937,265.556 77.2604,270.389 75.5,275.5 Z"/></g>
<g><path style="opacity:1" fill="#347937" d="M 206.5,319.5 C 201.395,322.892 196.062,326.059 190.5,329C 188.402,329.678 186.402,329.511 184.5,328.5C 183.833,326.833 183.167,325.167 182.5,323.5C 187.057,321.884 190.39,318.884 192.5,314.5C 191.764,312.459 190.931,310.459 190,308.5C 183.154,301.412 175.154,296.079 166,292.5C 165.235,292.57 164.735,292.903 164.5,293.5C 163.728,292.306 162.728,291.306 161.5,290.5C 159.909,287.648 158.576,284.648 157.5,281.5C 159.966,280.366 162.633,280.199 165.5,281C 180.118,289.285 193.285,299.451 205,311.5C 206.252,314.014 206.752,316.68 206.5,319.5 Z"/></g>
<g><path style="opacity:1" fill="#0f1314" d="M 315.5,296.5 C 324.769,292.867 333.436,288.2 341.5,282.5C 342.323,279.023 342.823,275.356 343,271.5C 351.292,279.087 352.626,287.754 347,297.5C 335.364,308.886 324.53,308.719 314.5,297C 314.728,296.601 315.062,296.435 315.5,296.5 Z"/></g>
<g><path style="opacity:0.332" fill="#616161" d="M 510.5,240.5 C 510.384,243.86 510.051,247.193 509.5,250.5C 505.126,257.382 500.126,263.882 494.5,270C 484.908,277.424 474.908,284.258 464.5,290.5C 463.572,291.768 463.405,293.101 464,294.5C 466.696,298.361 469.863,301.694 473.5,304.5C 466.506,299.202 459.172,294.202 451.5,289.5C 450.571,288.311 450.238,286.978 450.5,285.5C 462.095,288.02 472.428,285.52 481.5,278C 492.628,269.045 501.628,258.379 508.5,246C 508.167,245.667 507.833,245.333 507.5,245C 508.399,243.348 509.399,241.848 510.5,240.5 Z"/></g>
<g><path style="opacity:0.056" fill="#fbfbfb" d="M 84.5,319.5 C 84.5,320.833 84.5,322.167 84.5,323.5C 84.5,323.833 84.5,324.167 84.5,324.5C 80.4938,322.494 77.4938,319.494 75.5,315.5C 75.5,314.5 75.5,313.5 75.5,312.5C 75.5,309.833 75.5,307.167 75.5,304.5C 75.3375,299.453 75.6708,294.453 76.5,289.5C 78.9118,289.306 79.9118,287.973 79.5,285.5C 81.8771,285.784 84.0438,285.784 86,285.5C 86.8974,288.49 87.7308,291.49 88.5,294.5C 85.8945,302.544 84.5612,310.877 84.5,319.5 Z"/></g>
<g><path style="opacity:1" fill="#253035" d="M 292.5,255.5 C 292.334,264.839 292.5,274.173 293,283.5C 295.979,285.067 298.812,286.734 301.5,288.5C 299.815,289.184 298.815,290.517 298.5,292.5C 305.119,306.283 315.952,314.616 331,317.5C 342.728,314.217 352.728,308.883 361,301.5C 361.333,301.833 361.667,302.167 362,302.5C 364.135,300.722 366.635,300.055 369.5,300.5C 355.363,308.738 341.03,316.738 326.5,324.5C 322.404,328.274 317.737,329.274 312.5,327.5C 300.635,321.071 288.969,314.404 277.5,307.5C 278.384,304.977 279.218,302.31 280,299.5C 282.956,294.585 285.622,289.585 288,284.5C 288.853,282.875 289.853,282.542 291,283.5C 291.17,273.991 291.67,264.658 292.5,255.5 Z"/></g>
<g><path style="opacity:1" fill="#14181b" d="M 421.5,289.5 C 435.652,296.074 449.318,303.407 462.5,311.5C 462.714,313.144 462.38,314.644 461.5,316C 457.807,317.847 454.14,319.68 450.5,321.5C 442.501,319.004 435.335,315.004 429,309.5C 428.667,309.833 428.333,310.167 428,310.5C 421.901,305.235 419.734,298.235 421.5,289.5 Z"/></g>
<g><path style="opacity:1" fill="#3c8b3f" d="M 182.5,323.5 C 176,313.839 170,303.839 164.5,293.5C 164.735,292.903 165.235,292.57 166,292.5C 175.154,296.079 183.154,301.412 190,308.5C 190.931,310.459 191.764,312.459 192.5,314.5C 190.39,318.884 187.057,321.884 182.5,323.5 Z"/></g>
<g><path style="opacity:0.306" fill="#828282" d="M 508.5,235.5 C 508.833,235.5 509.167,235.5 509.5,235.5C 510.167,235.5 510.5,235.833 510.5,236.5C 510.5,237.833 510.5,239.167 510.5,240.5C 509.399,241.848 508.399,243.348 507.5,245C 507.833,245.333 508.167,245.667 508.5,246C 501.628,258.379 492.628,269.045 481.5,278C 472.428,285.52 462.095,288.02 450.5,285.5C 450.238,286.978 450.571,288.311 451.5,289.5C 459.172,294.202 466.506,299.202 473.5,304.5C 473.427,306.027 474.094,307.027 475.5,307.5C 476.635,309.745 477.135,312.078 477,314.5C 473.631,317.442 470.131,320.276 466.5,323C 459.926,325.628 453.592,328.628 447.5,332C 439.869,333.309 432.203,333.642 424.5,333C 418.037,330.546 412.037,327.212 406.5,323C 395.763,319.197 386.429,313.197 378.5,305C 374.779,304.322 371.112,304.489 367.5,305.5C 369.902,301.922 373.235,300.755 377.5,302C 381.962,305.219 385.962,308.886 389.5,313C 393.746,314.456 397.746,316.456 401.5,319C 405.649,320.737 409.983,321.737 414.5,322C 418.44,324.802 422.773,326.802 427.5,328C 429.066,328.765 430.399,328.598 431.5,327.5C 434.5,328.833 437.5,328.833 440.5,327.5C 441.097,328.139 441.93,328.472 443,328.5C 449.989,326.534 456.822,324.034 463.5,321C 465.894,317.59 469.061,315.423 473,314.5C 473.584,311.743 473.25,309.077 472,306.5C 467.468,305.147 463.968,302.48 461.5,298.5C 456.324,296.579 451.324,294.079 446.5,291C 442.288,287.091 442.621,283.758 447.5,281C 453.272,280.311 458.938,280.811 464.5,282.5C 467.946,280.784 471.613,279.618 475.5,279C 480,275.167 484.5,271.333 489,267.5C 489.692,266.563 489.525,265.897 488.5,265.5C 489.167,264.5 489.833,263.5 490.5,262.5C 491.496,262.586 492.329,262.252 493,261.5C 496.601,255.238 500.934,249.571 506,244.5C 506.914,242.336 508.081,240.336 509.5,238.5C 508.873,237.583 508.539,236.583 508.5,235.5 Z"/></g>
<g><path style="opacity:0.429" fill="#4a4a4a" d="M 63.5,254.5 C 80.0933,254.408 84.76,261.741 77.5,276.5C 78.3973,271.86 78.5639,267.194 78,262.5C 75.9722,258.866 72.8056,257.2 68.5,257.5C 60.5394,258.131 56.8727,262.465 57.5,270.5C 59.8163,283.243 58.6496,295.576 54,307.5C 48.5125,311.987 43.3459,316.821 38.5,322C 37.1667,322.333 35.8333,322.667 34.5,323C 29.4791,328.011 23.4791,331.177 16.5,332.5C 22.1805,327.657 28.5138,323.823 35.5,321C 41.7232,315.732 47.3899,309.899 52.5,303.5C 53.6265,297.237 54.2931,290.903 54.5,284.5C 52.3703,275.837 53.2037,267.503 57,259.5C 59.352,257.97 61.5187,256.303 63.5,254.5 Z"/></g>
<g><path style="opacity:0.34" fill="#333333" d="M 77.5,276.5 C 76.0167,279.433 74.6834,282.433 73.5,285.5C 73.5,283.833 73.5,282.167 73.5,280.5C 74.1667,278.833 74.8333,277.167 75.5,275.5C 77.2604,270.389 76.5937,265.556 73.5,261C 63.605,258.391 58.9384,262.225 59.5,272.5C 60.4556,280.821 60.6223,289.155 60,297.5C 58.2532,300.21 57.2532,303.21 57,306.5C 49.6218,314.418 41.7884,321.751 33.5,328.5C 25.1394,331.167 17.1394,334.167 9.5,337.5C 8.50838,337.672 7.84171,337.338 7.5,336.5C 7.83333,335.833 8.16667,335.167 8.5,334.5C 11.2666,334.142 13.9333,333.475 16.5,332.5C 23.4791,331.177 29.4791,328.011 34.5,323C 35.8333,322.667 37.1667,322.333 38.5,322C 43.3459,316.821 48.5125,311.987 54,307.5C 58.6496,295.576 59.8163,283.243 57.5,270.5C 56.8727,262.465 60.5394,258.131 68.5,257.5C 72.8056,257.2 75.9722,258.866 78,262.5C 78.5639,267.194 78.3973,271.86 77.5,276.5 Z"/></g>
<g><path style="opacity:1" fill="#286a2b" d="M 161.5,290.5 C 162.728,291.306 163.728,292.306 164.5,293.5C 170,303.839 176,313.839 182.5,323.5C 183.167,325.167 183.833,326.833 184.5,328.5C 172.635,322.071 160.969,315.404 149.5,308.5C 149.062,306.874 148.728,305.207 148.5,303.5C 149.914,298.405 152.914,294.405 157.5,291.5C 159.012,290.912 160.345,290.578 161.5,290.5 Z"/></g>
<g><path style="opacity:0.645" fill="#555555" d="M 349.5,318.5 C 356.857,317.488 363.19,314.322 368.5,309C 377.036,305.107 382.703,307.607 385.5,316.5C 382.914,315.99 380.581,314.99 378.5,313.5C 377.688,312.007 376.355,311.34 374.5,311.5C 372.423,311.692 370.423,312.192 368.5,313C 356.536,319.332 344.869,325.999 333.5,333C 320.865,338.685 308.198,338.852 295.5,333.5C 295.092,332.357 294.425,331.357 293.5,330.5C 290.075,329.909 287.075,328.575 284.5,326.5C 278.865,325.273 273.365,323.607 268,321.5C 263.498,317.158 258.998,312.825 254.5,308.5C 253.167,307.833 251.833,307.167 250.5,306.5C 245.28,308.508 240.614,311.341 236.5,315C 233.26,316.4 229.927,317.567 226.5,318.5C 226.719,319.675 226.386,320.675 225.5,321.5C 221.34,323.412 217.34,325.579 213.5,328C 212.207,328.49 210.873,328.657 209.5,328.5C 211.367,327.24 212.7,325.573 213.5,323.5C 226.055,318.953 237.388,312.287 247.5,303.5C 249.743,302.526 252.076,302.192 254.5,302.5C 257.518,308.001 261.185,313.168 265.5,318C 279.008,322.502 292.342,327.502 305.5,333C 322.387,334.715 337.053,329.881 349.5,318.5 Z"/></g>
<g><path style="opacity:0.8" fill="#b4b6b5" d="M 123.5,241.5 C 124.483,245.298 124.817,249.298 124.5,253.5C 124.333,270.17 124.5,286.837 125,303.5C 125.5,301.667 126.667,300.5 128.5,300C 130.454,299.838 132.121,299.671 133.5,299.5C 138.359,303.362 143.692,306.362 149.5,308.5C 160.969,315.404 172.635,322.071 184.5,328.5C 184.265,329.097 183.765,329.43 183,329.5C 177.692,328.382 172.526,327.049 167.5,325.5C 164.634,322.479 161.3,319.979 157.5,318C 150.394,315.281 143.394,312.281 136.5,309C 132.263,308.196 128.263,308.696 124.5,310.5C 124.737,309.209 124.404,308.209 123.5,307.5C 123.5,294.167 123.5,280.833 123.5,267.5C 123.5,264.833 123.5,262.167 123.5,259.5C 123.5,257.167 123.5,254.833 123.5,252.5C 123.5,248.833 123.5,245.167 123.5,241.5 Z"/></g>
<g><path style="opacity:0.746" fill="#878787" d="M 123.5,307.5 C 124.404,308.209 124.737,309.209 124.5,310.5C 128.263,308.696 132.263,308.196 136.5,309C 143.394,312.281 150.394,315.281 157.5,318C 161.3,319.979 164.634,322.479 167.5,325.5C 168.749,327.136 170.416,328.303 172.5,329C 176.746,330.312 181.079,331.145 185.5,331.5C 191.201,330.658 196.868,329.658 202.5,328.5C 191.56,333.462 180.226,333.796 168.5,329.5C 163.903,327.498 159.57,324.998 155.5,322C 153.482,321.495 151.482,320.995 149.5,320.5C 142.117,312.706 133.95,311.706 125,317.5C 124.722,316.584 124.222,315.918 123.5,315.5C 123.5,312.833 123.5,310.167 123.5,307.5 Z"/></g>
<g><path style="opacity:0.808" fill="#6f6f6f" d="M 349.5,318.5 C 337.053,329.881 322.387,334.715 305.5,333C 292.342,327.502 279.008,322.502 265.5,318C 261.185,313.168 257.518,308.001 254.5,302.5C 252.076,302.192 249.743,302.526 247.5,303.5C 237.388,312.287 226.055,318.953 213.5,323.5C 218.785,318.431 225.119,314.931 232.5,313C 235.343,309.825 238.51,306.991 242,304.5C 243.843,301.091 246.343,298.424 249.5,296.5C 251.697,296.848 253.53,297.848 255,299.5C 258.57,305.025 262.07,310.525 265.5,316C 269.833,317 274.167,318 278.5,319C 286.237,323.026 294.237,326.692 302.5,330C 309.118,331.378 315.785,331.711 322.5,331C 330.86,328.32 338.526,324.32 345.5,319C 346.793,318.51 348.127,318.343 349.5,318.5 Z"/></g>
<g><path style="opacity:0.745" fill="#969696" d="M 76.5,282.5 C 78.1667,279.167 79.8333,275.833 81.5,272.5C 85.1705,269.751 86.3372,266.084 85,261.5C 79.6648,250.508 71.1648,247.341 59.5,252C 54.4097,254.751 51.243,258.917 50,264.5C 49.7407,275.525 49.2407,286.525 48.5,297.5C 44.4606,308.873 36.794,316.539 25.5,320.5C 28.771,317.732 31.9377,314.732 35,311.5C 35.6917,310.563 35.525,309.897 34.5,309.5C 35.1667,308.833 35.8333,308.167 36.5,307.5C 40.456,306.539 43.1227,304.205 44.5,300.5C 45.7763,298.438 46.6097,296.104 47,293.5C 47.3333,283.5 47.6667,273.5 48,263.5C 54.9762,249.263 65.8095,245.263 80.5,251.5C 81.4981,254.253 83.3315,256.253 86,257.5C 87.3929,262.095 87.7262,266.761 87,271.5C 83.0314,274.816 79.5314,278.483 76.5,282.5 Z"/></g>
<g><path style="opacity:0.827" fill="#b0b0b0" d="M 370.5,298.5 C 370.833,298.5 371.167,298.5 371.5,298.5C 374.833,299.833 378.167,299.833 381.5,298.5C 397.768,308.642 414.435,318.308 431.5,327.5C 430.399,328.598 429.066,328.765 427.5,328C 422.773,326.802 418.44,324.802 414.5,322C 409.983,321.737 405.649,320.737 401.5,319C 397.746,316.456 393.746,314.456 389.5,313C 385.962,308.886 381.962,305.219 377.5,302C 373.235,300.755 369.902,301.922 367.5,305.5C 354.536,312.984 341.203,319.984 327.5,326.5C 326.702,326.043 326.369,325.376 326.5,324.5C 341.03,316.738 355.363,308.738 369.5,300.5C 370.338,300.158 370.672,299.492 370.5,298.5 Z"/></g>
<g><path style="opacity:0.545" fill="#545454" d="M 149.5,320.5 C 151.482,320.995 153.482,321.495 155.5,322C 159.57,324.998 163.903,327.498 168.5,329.5C 173.369,333.855 179.202,335.855 186,335.5C 189.57,335.456 193.07,334.956 196.5,334C 200.817,332.063 205.15,330.23 209.5,328.5C 204.858,331.231 200.192,334.065 195.5,337C 185.053,339.684 175.053,338.684 165.5,334C 160.875,330.901 155.875,328.568 150.5,327C 147.909,324.167 144.909,321.834 141.5,320C 138.167,319.333 134.833,319.333 131.5,320C 128.33,321.417 125.33,323.084 122.5,325C 113.452,325.194 104.452,325.694 95.5,326.5C 94.914,326.291 94.414,325.957 94,325.5C 92.3775,326.099 90.8775,326.766 89.5,327.5C 88.5084,327.672 87.8417,327.338 87.5,326.5C 88.6085,325.71 89.9419,325.21 91.5,325C 100.18,324.51 108.847,323.844 117.5,323C 122.213,321.81 126.547,319.81 130.5,317C 132.167,316.833 133.833,316.667 135.5,316.5C 140.33,317.346 144.997,318.68 149.5,320.5 Z"/></g>
<g><path style="opacity:0.698" fill="#6c6c6c" d="M 63.5,254.5 C 61.5187,256.303 59.352,257.97 57,259.5C 53.2037,267.503 52.3703,275.837 54.5,284.5C 54.2931,290.903 53.6265,297.237 52.5,303.5C 47.3899,309.899 41.7232,315.732 35.5,321C 28.5138,323.823 22.1805,327.657 16.5,332.5C 13.9333,333.475 11.2666,334.142 8.5,334.5C 14.3508,330.072 20.0174,325.406 25.5,320.5C 36.794,316.539 44.4606,308.873 48.5,297.5C 49.4098,295.981 50.2432,294.315 51,292.5C 51.3333,283.167 51.6667,273.833 52,264.5C 54.187,259.173 58.0203,255.839 63.5,254.5 Z"/></g>
<g><path style="opacity:0.196" fill="#b3b3b3" d="M 103.5,309.5 C 105.05,310.441 106.716,311.107 108.5,311.5C 109.795,312.488 111.128,313.488 112.5,314.5C 106.072,315.971 99.4052,317.471 92.5,319C 90.7254,320.439 88.7254,321.439 86.5,322C 87.2524,322.671 87.5858,323.504 87.5,324.5C 86.609,323.89 85.609,323.557 84.5,323.5C 84.5,322.167 84.5,320.833 84.5,319.5C 85.1174,319.611 85.6174,319.944 86,320.5C 86.7926,316.421 88.9593,313.255 92.5,311C 96.3563,310.823 100.023,310.323 103.5,309.5 Z"/></g>
<g><path style="opacity:0.65" fill="#878787" d="M 112.5,314.5 C 114.833,315.833 117.167,317.167 119.5,318.5C 117.974,320.13 115.974,320.963 113.5,321C 106.138,321.636 98.805,322.469 91.5,323.5C 90.5581,323.392 89.7247,323.059 89,322.5C 88.7216,323.416 88.2216,324.082 87.5,324.5C 87.5858,323.504 87.2524,322.671 86.5,322C 88.7254,321.439 90.7254,320.439 92.5,319C 99.4052,317.471 106.072,315.971 112.5,314.5 Z"/></g>
<g><path style="opacity:0.7" fill="#3c3c3c" d="M 378.5,313.5 C 373.872,313.116 369.539,313.95 365.5,316C 364.833,317 364.167,318 363.5,319C 359.8,319.843 356.8,321.676 354.5,324.5C 351.11,324.511 348.444,325.845 346.5,328.5C 340.641,330.496 335.308,333.329 330.5,337C 321.631,339.267 312.631,339.934 303.5,339C 300.028,338.305 297.361,336.472 295.5,333.5C 308.198,338.852 320.865,338.685 333.5,333C 344.869,325.999 356.536,319.332 368.5,313C 370.423,312.192 372.423,311.692 374.5,311.5C 376.355,311.34 377.688,312.007 378.5,313.5 Z"/></g>
<g><path style="opacity:0.765" fill="#949494" d="M 312.5,327.5 C 317.737,329.274 322.404,328.274 326.5,324.5C 326.369,325.376 326.702,326.043 327.5,326.5C 341.203,319.984 354.536,312.984 367.5,305.5C 362.037,310.637 356.037,314.97 349.5,318.5C 348.127,318.343 346.793,318.51 345.5,319C 338.526,324.32 330.86,328.32 322.5,331C 315.785,331.711 309.118,331.378 302.5,330C 294.237,326.692 286.237,323.026 278.5,319C 274.167,318 269.833,317 265.5,316C 262.07,310.525 258.57,305.025 255,299.5C 253.53,297.848 251.697,296.848 249.5,296.5C 246.343,298.424 243.843,301.091 242,304.5C 238.51,306.991 235.343,309.825 232.5,313C 225.119,314.931 218.785,318.431 213.5,323.5C 209.725,324.887 206.059,326.553 202.5,328.5C 196.868,329.658 191.201,330.658 185.5,331.5C 181.079,331.145 176.746,330.312 172.5,329C 170.416,328.303 168.749,327.136 167.5,325.5C 172.526,327.049 177.692,328.382 183,329.5C 183.765,329.43 184.265,329.097 184.5,328.5C 186.402,329.511 188.402,329.678 190.5,329C 196.062,326.059 201.395,322.892 206.5,319.5C 212.165,317.003 217.498,314.003 222.5,310.5C 228.256,307.928 233.922,305.094 239.5,302C 241.607,300.736 242.607,298.903 242.5,296.5C 242.5,294.5 242.5,292.5 242.5,290.5C 243.314,292.631 243.814,294.964 244,297.5C 245.792,295.013 247.292,292.346 248.5,289.5C 249.365,288.417 250.365,288.251 251.5,289C 255.871,293.309 258.705,298.476 260,304.5C 262.167,306.667 264.333,308.833 266.5,311C 273.015,312.543 279.348,314.543 285.5,317C 292.968,319.922 299.968,323.589 306.5,328C 308.712,328.789 310.712,328.622 312.5,327.5 Z"/></g>
<g><path style="opacity:0.509" fill="#6a6a6a" d="M 149.5,320.5 C 144.997,318.68 140.33,317.346 135.5,316.5C 133.833,316.667 132.167,316.833 130.5,317C 126.547,319.81 122.213,321.81 117.5,323C 108.847,323.844 100.18,324.51 91.5,325C 89.9419,325.21 88.6085,325.71 87.5,326.5C 86.8333,326.167 86.1667,325.833 85.5,325.5C 84.8333,325.5 84.5,325.167 84.5,324.5C 84.5,324.167 84.5,323.833 84.5,323.5C 85.609,323.557 86.609,323.89 87.5,324.5C 88.2216,324.082 88.7216,323.416 89,322.5C 89.7247,323.059 90.5581,323.392 91.5,323.5C 98.805,322.469 106.138,321.636 113.5,321C 115.974,320.963 117.974,320.13 119.5,318.5C 120.833,318.5 122.167,318.5 123.5,318.5C 123.5,317.5 123.5,316.5 123.5,315.5C 124.222,315.918 124.722,316.584 125,317.5C 133.95,311.706 142.117,312.706 149.5,320.5 Z"/></g>
<g><path style="opacity:0.144" fill="#adadad" d="M 34.5,309.5 C 35.525,309.897 35.6917,310.563 35,311.5C 31.9377,314.732 28.771,317.732 25.5,320.5C 20.0174,325.406 14.3508,330.072 8.5,334.5C 8.16667,335.167 7.83333,335.833 7.5,336.5C 6.83333,336.5 6.16667,336.5 5.5,336.5C 6.60193,333.573 7.60193,330.573 8.5,327.5C 8.29069,326.914 7.95735,326.414 7.5,326C 9.67164,323.329 12.005,320.829 14.5,318.5C 15.7382,319.412 17.0715,319.579 18.5,319C 21.9858,317.004 25.3191,314.837 28.5,312.5C 30.5,311.5 32.5,310.5 34.5,309.5 Z"/></g>
<g><path style="opacity:0.31" fill="#171717" d="M 256.5,317.5 C 254.072,316.61 251.738,316.277 249.5,316.5C 236.5,323.667 223.5,330.833 210.5,338C 197.865,345.228 185.032,347.394 172,344.5C 171.667,344.833 171.333,345.167 171,345.5C 160.848,339.849 151.015,333.849 141.5,327.5C 135.226,329.758 128.893,331.925 122.5,334C 119.571,334.777 116.737,334.61 114,333.5C 113.333,334.167 112.667,334.833 112,335.5C 108.869,334.794 105.702,334.127 102.5,333.5C 101.893,333.624 101.56,333.957 101.5,334.5C 97.827,333 94.4937,331 91.5,328.5C 91.4346,328.062 91.6012,327.728 92,327.5C 94.3748,328.129 96.5414,329.129 98.5,330.5C 100.828,331.718 103.328,332.718 106,333.5C 112.085,332.688 118.252,332.188 124.5,332C 129.844,329.41 135.344,327.244 141,325.5C 142.226,325.645 143.393,325.978 144.5,326.5C 153.267,333.219 162.934,338.385 173.5,342C 181.542,342.723 189.542,342.39 197.5,341C 199.491,340.626 201.158,339.793 202.5,338.5C 217.305,331.602 231.305,323.435 244.5,314C 249.739,311.209 253.739,312.376 256.5,317.5 Z"/></g>
<g><path style="opacity:0.242" fill="#252525" d="M 202.5,338.5 C 201.158,339.793 199.491,340.626 197.5,341C 189.542,342.39 181.542,342.723 173.5,342C 162.934,338.385 153.267,333.219 144.5,326.5C 143.393,325.978 142.226,325.645 141,325.5C 135.344,327.244 129.844,329.41 124.5,332C 118.252,332.188 112.085,332.688 106,333.5C 103.328,332.718 100.828,331.718 98.5,330.5C 104.842,330.666 111.175,330.5 117.5,330C 123.838,327.164 130.172,324.331 136.5,321.5C 141.7,322.435 146.034,324.935 149.5,329C 158.903,332.76 168.07,336.926 177,341.5C 185.422,341.532 193.922,340.532 202.5,338.5 Z"/></g>
<g><path style="opacity:0.363" fill="#101010" d="M 75.5,275.5 C 74.8333,277.167 74.1667,278.833 73.5,280.5C 73.797,276.233 73.4637,272.066 72.5,268C 70.1667,267.333 67.8333,267.333 65.5,268C 64.8095,269.067 64.3095,270.234 64,271.5C 64.5269,283.14 64.5269,294.807 64,306.5C 63.6156,310.653 62.6156,314.653 61,318.5C 60.6667,317.5 60.3333,316.5 60,315.5C 59,317.167 58,318.833 57,320.5C 56.6667,320.167 56.3333,319.833 56,319.5C 42.7945,331.512 27.2945,337.512 9.5,337.5C 17.1394,334.167 25.1394,331.167 33.5,328.5C 36.8607,327.316 39.8607,325.483 42.5,323C 44.9519,322.71 47.2852,322.044 49.5,321C 51.305,318.597 53.6384,316.93 56.5,316C 63.4992,303.392 65.4992,289.892 62.5,275.5C 62.2996,271.638 62.9663,267.971 64.5,264.5C 68.0922,262.28 71.5922,262.613 75,265.5C 75.4983,268.817 75.665,272.15 75.5,275.5 Z"/></g>
<g><path style="opacity:0.188" fill="#2a2a2a" d="M 295.5,333.5 C 297.361,336.472 300.028,338.305 303.5,339C 312.631,339.934 321.631,339.267 330.5,337C 335.308,333.329 340.641,330.496 346.5,328.5C 348.444,325.845 351.11,324.511 354.5,324.5C 341.087,335.463 325.921,342.13 309,344.5C 297.781,340.974 287.281,335.974 277.5,329.5C 276.914,329.709 276.414,330.043 276,330.5C 273.557,329.407 271.057,328.407 268.5,327.5C 264.114,324.431 260.114,321.098 256.5,317.5C 253.739,312.376 249.739,311.209 244.5,314C 231.305,323.435 217.305,331.602 202.5,338.5C 202.953,337.542 203.619,336.708 204.5,336C 216.954,329.405 228.954,322.072 240.5,314C 245.199,310.604 250.199,309.937 255.5,312C 258.403,315.781 261.737,319.114 265.5,322C 275.455,326.152 285.455,329.985 295.5,333.5 Z"/></g>
<g><path style="opacity:0.557" fill="#666666" d="M 475.5,307.5 C 478.144,309.516 478.977,312.183 478,315.5C 475.567,319.768 472.067,322.768 467.5,324.5C 460.314,327.177 453.314,330.343 446.5,334C 433.773,338.089 422.106,336.089 411.5,328C 402.578,324.641 393.911,320.808 385.5,316.5C 382.703,307.607 377.036,305.107 368.5,309C 363.19,314.322 356.857,317.488 349.5,318.5C 356.037,314.97 362.037,310.637 367.5,305.5C 371.112,304.489 374.779,304.322 378.5,305C 386.429,313.197 395.763,319.197 406.5,323C 412.037,327.212 418.037,330.546 424.5,333C 432.203,333.642 439.869,333.309 447.5,332C 453.592,328.628 459.926,325.628 466.5,323C 470.131,320.276 473.631,317.442 477,314.5C 477.135,312.078 476.635,309.745 475.5,307.5 Z"/></g>
<g><path style="opacity:0.316" fill="#3b3b3b" d="M 295.5,333.5 C 285.455,329.985 275.455,326.152 265.5,322C 261.737,319.114 258.403,315.781 255.5,312C 250.199,309.937 245.199,310.604 240.5,314C 228.954,322.072 216.954,329.405 204.5,336C 203.619,336.708 202.953,337.542 202.5,338.5C 193.922,340.532 185.422,341.532 177,341.5C 168.07,336.926 158.903,332.76 149.5,329C 146.034,324.935 141.7,322.435 136.5,321.5C 130.172,324.331 123.838,327.164 117.5,330C 111.175,330.5 104.842,330.666 98.5,330.5C 96.5414,329.129 94.3748,328.129 92,327.5C 91.6012,327.728 91.4346,328.062 91.5,328.5C 90.5084,328.672 89.8417,328.338 89.5,327.5C 90.8775,326.766 92.3775,326.099 94,325.5C 94.414,325.957 94.914,326.291 95.5,326.5C 104.452,325.694 113.452,325.194 122.5,325C 125.33,323.084 128.33,321.417 131.5,320C 134.833,319.333 138.167,319.333 141.5,320C 144.909,321.834 147.909,324.167 150.5,327C 155.875,328.568 160.875,330.901 165.5,334C 175.053,338.684 185.053,339.684 195.5,337C 200.192,334.065 204.858,331.231 209.5,328.5C 210.873,328.657 212.207,328.49 213.5,328C 217.34,325.579 221.34,323.412 225.5,321.5C 226.386,320.675 226.719,319.675 226.5,318.5C 229.927,317.567 233.26,316.4 236.5,315C 240.614,311.341 245.28,308.508 250.5,306.5C 251.833,307.167 253.167,307.833 254.5,308.5C 258.998,312.825 263.498,317.158 268,321.5C 273.365,323.607 278.865,325.273 284.5,326.5C 287.075,328.575 290.075,329.909 293.5,330.5C 294.425,331.357 295.092,332.357 295.5,333.5 Z"/></g>
<g><path style="opacity:0.79" fill="#6a6a6a" d="M 213.5,323.5 C 212.7,325.573 211.367,327.24 209.5,328.5C 205.15,330.23 200.817,332.063 196.5,334C 193.07,334.956 189.57,335.456 186,335.5C 179.202,335.855 173.369,333.855 168.5,329.5C 180.226,333.796 191.56,333.462 202.5,328.5C 206.059,326.553 209.725,324.887 213.5,323.5 Z"/></g>
<g><path style="opacity:0.653" fill="#3b3b3b" d="M 509.5,250.5 C 509.5,252.833 509.5,255.167 509.5,257.5C 508.288,258.23 507.288,259.23 506.5,260.5C 505.287,265.556 502.62,269.723 498.5,273C 491.004,276.82 484.338,281.82 478.5,288C 475.062,287.865 472.228,289.032 470,291.5C 470.908,297.639 473.741,302.973 478.5,307.5C 481.547,315.685 479.213,322.018 471.5,326.5C 458.977,333.79 445.477,338.79 431,341.5C 426.778,341.441 422.611,340.941 418.5,340C 412.769,336.475 407.103,332.975 401.5,329.5C 407.601,329.351 412.601,331.518 416.5,336C 424.321,338.435 432.321,339.102 440.5,338C 448.348,334.652 456.181,331.486 464,328.5C 465.402,327.355 466.569,326.022 467.5,324.5C 472.067,322.768 475.567,319.768 478,315.5C 478.977,312.183 478.144,309.516 475.5,307.5C 474.094,307.027 473.427,306.027 473.5,304.5C 469.863,301.694 466.696,298.361 464,294.5C 463.405,293.101 463.572,291.768 464.5,290.5C 474.908,284.258 484.908,277.424 494.5,270C 500.126,263.882 505.126,257.382 509.5,250.5 Z"/></g>
<g><path style="opacity:0.518" fill="#4a4a4a" d="M 385.5,316.5 C 393.911,320.808 402.578,324.641 411.5,328C 422.106,336.089 433.773,338.089 446.5,334C 453.314,330.343 460.314,327.177 467.5,324.5C 466.569,326.022 465.402,327.355 464,328.5C 456.181,331.486 448.348,334.652 440.5,338C 432.321,339.102 424.321,338.435 416.5,336C 412.601,331.518 407.601,329.351 401.5,329.5C 399.416,326.294 396.416,324.961 392.5,325.5C 392.719,324.325 392.386,323.325 391.5,322.5C 388.607,321.369 386.607,319.369 385.5,316.5 Z"/></g>
<g><path style="opacity:0.336" fill="#101010" d="M 256.5,317.5 C 260.114,321.098 264.114,324.431 268.5,327.5C 271.057,328.407 273.557,329.407 276,330.5C 276.414,330.043 276.914,329.709 277.5,329.5C 287.281,335.974 297.781,340.974 309,344.5C 325.921,342.13 341.087,335.463 354.5,324.5C 361.091,321.951 367.591,319.285 374,316.5C 388.748,325.302 403.914,333.802 419.5,342C 423.981,342.956 428.481,343.789 433,344.5C 446.088,340.027 459.088,335.36 472,330.5C 472.414,330.957 472.914,331.291 473.5,331.5C 477.435,328.585 479.602,324.585 480,319.5C 480.464,320.094 480.631,320.761 480.5,321.5C 480.703,330.784 476.37,335.617 467.5,336C 452.087,346.007 435.42,349.341 417.5,346C 405.674,339.921 394.007,333.588 382.5,327C 381.167,326.333 381.167,325.667 382.5,325C 377.053,321.627 371.72,321.961 366.5,326C 355.66,332.254 344.66,338.254 333.5,344C 327.568,345.489 321.568,346.655 315.5,347.5C 309.825,347.903 304.158,347.403 298.5,346C 282.542,337.777 267.042,328.944 252,319.5C 235.897,328.135 219.73,336.635 203.5,345C 195.534,346.348 187.534,347.515 179.5,348.5C 175.758,347.985 172.091,347.152 168.5,346C 158.133,340.511 148.967,335.344 141,330.5C 137.713,332.56 134.213,334.226 130.5,335.5C 129.833,335.167 129.167,334.833 128.5,334.5C 119.432,338.266 110.432,338.266 101.5,334.5C 101.56,333.957 101.893,333.624 102.5,333.5C 105.702,334.127 108.869,334.794 112,335.5C 112.667,334.833 113.333,334.167 114,333.5C 116.737,334.61 119.571,334.777 122.5,334C 128.893,331.925 135.226,329.758 141.5,327.5C 151.015,333.849 160.848,339.849 171,345.5C 171.333,345.167 171.667,344.833 172,344.5C 185.032,347.394 197.865,345.228 210.5,338C 223.5,330.833 236.5,323.667 249.5,316.5C 251.738,316.277 254.072,316.61 256.5,317.5 Z"/></g>
</svg>
