<svg xmlns="http://www.w3.org/2000/svg" version="1.1" xmlns:xlink="http://www.w3.org/1999/xlink" xmlns:svgjs="http://svgjs.dev/svgjs" width="1000" height="623" viewBox="0 0 1000 623"><g transform="matrix(1,0,0,1,-0.6060606060606233,0.2522267206477409)"><svg viewBox="0 0 396 247" data-background-color="#282634" preserveAspectRatio="xMidYMid meet" height="623" width="1000" xmlns="http://www.w3.org/2000/svg" xmlns:xlink="http://www.w3.org/1999/xlink"><g id="tight-bounds" transform="matrix(1,0,0,1,0.2400000000000091,-0.09999999999999432)"><svg viewBox="0 0 395.52 247.2" height="247.2" width="395.52"><g><svg></svg></g><g><svg viewBox="0 0 395.52 247.2" height="247.2" width="395.52"><g><g><path d="M76.187 175.335l-75.118 5.919c0.219-12.474 0.452-24.901 0.698-37.279l77.4 0zM3.919 57.434h46.401c-1.364 13.031-2.667 26.038-3.91 39.02-0.22 2.254-0.429 4.511-0.626 6.771l-43.129 0c0.375-15.197 0.796-30.461 1.264-45.791zM163.946 155.057c-2.558 6.625-6.016 12.434-10.376 17.428-4.384 4.993-9.694 8.951-15.93 11.874-6.235 2.923-13.396 4.384-21.483 4.384-3.166 0-6.455-0.268-9.864-0.803-3.41-0.536-6.796-1.34-10.157-2.412-3.361-1.072-6.576-2.399-9.646-3.982-3.069-1.583-5.785-3.41-8.147-5.481l4.793-32.09h6.626c1.844 1.277 3.773 2.413 5.789 3.41 4.287 2.119 8.951 3.179 13.993 3.178 3.264 0 6.028-0.475 8.294-1.424 2.265-0.95 4.141-2.265 5.626-3.946 0.35-0.39 0.682-0.796 0.997-1.218h42.797c-0.827 3.811-1.931 7.505-3.312 11.082zM128.287 88.233c-0.95-9.353-1.79-18.731-2.521-28.132l40.884-2.667c1.463 15.272 2.324 30.536 2.583 45.791l-39.833 0c-0.237-5.008-0.607-10.005-1.113-14.992zM245.384 55.278l44.976 3.581-32.115 44.366-79.844 0 1-47.947 41.541 2.338-3.215 40.299zM283.564 181.4l-41.395 7.343-27.109-38.545-1.425 40.299-37.084 1.425 1-47.947h84.551zM394.451 87.393c0 4.409-0.207 9.256-0.621 14.541-0.034 0.429-0.069 0.859-0.107 1.291l-41.603 0c0.168-2.755 0.273-5.231 0.314-7.429 0.049-2.558 0.073-4.47 0.073-5.736 0-4.628-0.073-9.244-0.219-13.847-0.146-4.604-0.365-9.195-0.657-13.774h41.76c0.706 8.184 1.06 16.502 1.06 24.954zM382.394 152.244c-2.241 5.359-4.871 10.364-7.892 15.016-2.996 4.677-6.442 8.756-10.34 12.24-3.897 3.483-8.257 6.223-13.079 8.22-4.798 1.973-10.145 2.959-16.04 2.96-6.893 0-12.885-1.108-17.975-3.325-5.091-2.241-9.451-5.249-13.08-9.024-3.629-3.775-6.601-8.172-8.915-13.19-2.314-5.018-4.129-10.34-5.444-15.966-0.395-1.723-0.754-3.456-1.076-5.2l40.262 0c0.412 1.913 0.917 3.683 1.515 5.31 0.755 2.143 1.681 3.909 2.777 5.297 1.12 1.364 2.424 2.046 3.909 2.046 1.705 0 3.252-0.816 4.64-2.448 1.364-1.656 2.558-3.848 3.581-6.576 0.436-1.136 0.849-2.345 1.238-3.629h39.056c-0.95 2.812-1.996 5.568-3.137 8.269zM287.401 90.133c0.828-8.306 2.022-16.587 3.58-24.844l41.724 1.607c-1.583 9.329-2.959 18.706-4.128 28.133-0.338 2.729-0.628 5.461-0.869 8.196l-41.271 0c0.206-4.371 0.528-8.735 0.964-13.092z" fill="#da0037" fill-rule="nonzero" stroke="none" stroke-width="1" stroke-linecap="butt" stroke-linejoin="miter" stroke-miterlimit="10" stroke-dasharray="" stroke-dashoffset="0" font-family="none" font-weight="none" font-size="none" text-anchor="none" style="mix-blend-mode: normal" data-fill-palette-color="tertiary"></path></g></g><g transform="matrix(1,0,0,1,0,106.11750432299532)"><svg viewBox="0 0 395.52 34.964991354009356" height="34.964991354009356" width="395.52"><g><svg viewBox="0 0 395.52 34.964991354009356" height="34.964991354009356" width="395.52"><g><svg viewBox="0 0 395.52 34.964991354009356" height="34.964991354009356" width="395.52"><g><svg viewBox="0 0 395.52 34.964991354009356" height="34.964991354009356" width="395.52"><g><svg viewBox="0 0 395.52 34.964991354009356" height="34.964991354009356" width="395.52"><g><svg viewBox="0 0 395.52 19.822277691107644" height="19.822277691107644" width="395.52"><g transform="matrix(1,0,0,1,0,0)"><svg width="395.52" viewBox="1.12 -36.18 751.1 37.64" height="19.822277691107644" data-palette-color="#da0037"><path d="M22.71-13.92L22.71-13.92 21.68-3.08 1.12-1.46Q1.27-9.99 1.45-18.41 1.64-26.83 1.9-35.35L1.9-35.35 14.6-35.35Q14.04-30 13.53-24.67 13.01-19.34 12.79-13.92L12.79-13.92Q13.94-13.87 15.06-13.87 16.19-13.87 17.33-13.87L17.33-13.87Q18.7-13.87 20.02-13.89 21.34-13.92 22.71-13.92ZM54.03-17.24L54.03-17.24Q54.03-15.01 53.51-12.95 53-10.89 52.04-9.08 51.07-7.28 49.69-5.77 48.31-4.27 46.59-3.2 44.87-2.12 42.84-1.53 40.82-0.93 38.55-0.93L38.55-0.93Q36.35-0.93 34.36-1.49 32.37-2.05 30.64-3.06 28.9-4.08 27.5-5.51 26.1-6.93 25.11-8.68 24.12-10.42 23.57-12.43 23.02-14.43 23.02-16.6L23.02-16.6Q23.02-18.73 23.53-20.76 24.05-22.8 25.01-24.61 25.97-26.42 27.34-27.93 28.71-29.44 30.41-30.54 32.1-31.64 34.08-32.25 36.06-32.86 38.25-32.86L38.25-32.86Q41.79-32.86 44.71-31.76 47.63-30.66 49.69-28.63 51.76-26.59 52.89-23.69 54.03-20.8 54.03-17.24ZM43.19-16.6L43.19-16.6Q43.19-17.65 42.88-18.64 42.58-19.63 41.99-20.4 41.4-21.17 40.54-21.64 39.67-22.12 38.55-22.12L38.55-22.12Q37.4-22.12 36.5-21.7 35.59-21.29 34.95-20.57 34.3-19.85 33.96-18.88 33.62-17.92 33.62-16.85L33.62-16.85Q33.62-15.82 33.91-14.79 34.2-13.77 34.79-12.94 35.37-12.11 36.24-11.6 37.11-11.08 38.25-11.08L38.25-11.08Q39.4-11.08 40.32-11.54 41.23-11.99 41.87-12.76 42.5-13.53 42.84-14.53 43.19-15.53 43.19-16.6ZM74.38-35.94L86.69-34.96 74.92-18.7 84.83-1.42 73.51 0.59 66.08-9.96 65.69 1.07 55.54 1.46 56.32-35.94 67.7-35.3 66.82-24.27 74.38-35.94ZM119.52-20.12L119.52-20.12Q119.52-18.68 119.52-17.26 119.52-15.84 119.37-14.4L119.37-14.4Q119.11-11.35 118.06-8.63 117.01-5.91 115.21-3.86 113.42-1.81 110.85-0.61 108.29 0.59 104.97 0.59L104.97 0.59Q103.68 0.59 102.27 0.37 100.87 0.15 99.49-0.29 98.11-0.73 96.85-1.38 95.6-2.03 94.62-2.88L94.62-2.88 96.13-12.99Q97.57-11.6 99.33-10.73 101.09-9.86 103.16-9.86L103.16-9.86Q104.51-9.86 105.43-10.25 106.36-10.64 106.97-11.33 107.58-12.01 107.94-12.93 108.29-13.84 108.45-14.88 108.61-15.92 108.64-17.02 108.68-18.12 108.68-19.19L108.68-19.19Q108.68-23.07 108.29-26.92 107.9-30.76 107.61-34.62L107.61-34.62 118.79-35.35Q119.52-27.73 119.52-20.12ZM141.93-34.96L151.45-2.1 139.34-0.54 137.88-6.05 132.31-6.05 131.09-0.54 118.64-1.76 128.36-34.28 141.93-34.96ZM133.34-13.53L137-13.53 135.14-22.02 133.34-13.53ZM180.55-21.39L180.84-4.98Q179.7-3.54 178.01-2.47 176.33-1.39 174.4-0.68 172.47 0.02 170.44 0.38 168.42 0.73 166.59 0.73L166.59 0.73Q163.05 0.73 160.07-0.54 157.09-1.81 154.93-4.04 152.77-6.27 151.55-9.3 150.33-12.33 150.33-15.82L150.33-15.82Q150.33-18.48 150.94-21.03 151.55-23.58 152.68-25.84 153.82-28.1 155.45-29.99 157.09-31.88 159.16-33.25 161.24-34.62 163.71-35.38 166.17-36.13 168.98-36.13L168.98-36.13Q170.03-36.13 171.23-36.05 172.42-35.96 173.61-35.75 174.79-35.55 175.91-35.18 177.04-34.81 177.96-34.28L177.96-34.28 177.28-24.95Q175.91-25.46 174.46-25.65 173.01-25.83 171.62-25.83L171.62-25.83Q169.66-25.83 167.97-25.23 166.27-24.63 165.01-23.51 163.75-22.39 163.02-20.78 162.29-19.17 162.29-17.14L162.29-17.14Q162.29-15.87 162.63-14.69 162.97-13.5 163.67-12.59 164.36-11.67 165.4-11.11 166.44-10.55 167.81-10.55L167.81-10.55Q168.74-10.55 169.72-10.79 170.71-11.04 171.42-11.62L171.42-11.62 171.52-13.53 165.66-13.62 165.95-20.95Q169.59-21.07 173.23-21.15 176.86-21.24 180.55-21.39L180.55-21.39ZM211.31-23.54L211.31-23.54Q211.31-21.63 210.98-20.08 210.65-18.53 209.94-17.24 209.24-15.94 208.11-14.84 206.99-13.75 205.4-12.74L205.4-12.74 211.21-2.39 200.23-0.24 196.47-10.64 193.44-10.55 193-0.39 182.5-0.39Q182.62-5.96 182.73-11.47 182.84-16.99 182.99-22.56L182.99-22.56Q183.04-25.37 183.09-28.13 183.14-30.88 183.28-33.69L183.28-33.69Q184.99-34.33 186.65-34.74 188.31-35.16 189.98-35.39 191.66-35.62 193.38-35.71 195.1-35.79 196.91-35.79L196.91-35.79Q199.69-35.79 202.29-35.02 204.89-34.25 206.89-32.71 208.89-31.18 210.1-28.88 211.31-26.59 211.31-23.54ZM200.37-22.75L200.37-22.75Q200.37-23.78 200.09-24.63 199.81-25.49 199.26-26.11 198.71-26.73 197.9-27.09 197.08-27.44 195.98-27.44L195.98-27.44Q195.49-27.44 195.03-27.38 194.56-27.32 194.12-27.2L194.12-27.2 193.73-18.12 194.32-18.12Q195.37-18.12 196.45-18.38 197.54-18.65 198.41-19.21 199.27-19.78 199.82-20.65 200.37-21.53 200.37-22.75ZM242.19-27.15L242.19-27.15Q242.19-25.34 242.02-23.17 241.85-21 241.46-18.68 241.07-16.36 240.45-13.98 239.82-11.6 238.9-9.4 237.97-7.2 236.74-5.29 235.5-3.37 233.9-1.94 232.3-0.51 230.33 0.31 228.35 1.12 225.93 1.12L225.93 1.12Q223.1 1.12 221.01 0.21 218.93-0.71 217.44-2.26 215.95-3.81 214.99-5.87 214.04-7.93 213.51-10.24 212.97-12.55 212.76-14.95 212.55-17.36 212.55-19.58L212.55-19.58Q212.55-23 212.9-26.4 213.24-29.81 213.87-33.2L213.87-33.2 225.3-32.76Q224.64-28.93 224.16-25.06 223.69-21.19 223.69-17.29L223.69-17.29Q223.69-16.87 223.72-16.05 223.76-15.23 223.86-14.22 223.95-13.21 224.14-12.15 224.32-11.08 224.64-10.21 224.96-9.33 225.41-8.76 225.86-8.2 226.47-8.2L226.47-8.2Q227.18-8.2 227.74-8.87 228.3-9.55 228.73-10.67 229.15-11.79 229.47-13.26 229.79-14.72 230.01-16.31 230.23-17.9 230.36-19.48 230.5-21.07 230.58-22.44 230.67-23.8 230.69-24.85 230.72-25.9 230.72-26.42L230.72-26.42Q230.72-28.32 230.66-30.21 230.6-32.1 230.47-33.98L230.47-33.98 241.9-33.98Q242.19-30.62 242.19-27.15ZM243.34-34.86L269.95-34.91 269.7-24.56 262.43-24.27 260.57-1.12 250.27-0.59 250.32-23.73 243.04-23.34 243.34-34.86ZM271.48-33.69L284.47-34.38 281.79-1.12 271.48-0.59 271.48-33.69ZM314.57-35.94L326.87-34.96 315.11-18.7 325.02-1.42 313.69 0.59 306.27-9.96 305.88 1.07 295.72 1.46 296.5-35.94 307.88-35.3 307-24.27 314.57-35.94ZM327.24-35.21L349.75-35.21Q349.6-32.91 349.48-30.66 349.36-28.42 349.16-26.12L349.16-26.12 338.81-25.59 338.57-22.51 345.84-22.51 345.3-14.94 337.98-14.7 337.74-11.13 343.79-11.13 348.09-11.13Q347.94-8.45 347.78-5.8 347.62-3.15 347.5-0.49L347.5-0.49 326.46 0 327.24-35.21ZM372.26-34.62L383.78-35.01 382.02-1.9 369.23-0.73 362.39-18.46 361.32-0.39 350.33-0.39 351.21-35.01 363.42-35.6 371.86-18.02 372.26-34.62ZM413.41-19.38L413.41-19.38Q413.41-15.97 412.54-13.22 411.66-10.47 410.08-8.34 408.51-6.2 406.33-4.66 404.16-3.13 401.57-2.14 398.99-1.15 396.07-0.67 393.15-0.2 390.07-0.2L390.07-0.2Q388.93-0.2 387.83-0.26 386.73-0.32 385.58-0.44L385.58-0.44 386.27-33.2Q388.95-34.06 391.8-34.41 394.64-34.77 397.45-34.77L397.45-34.77Q400.94-34.77 403.87-33.72 406.8-32.67 408.92-30.69 411.05-28.71 412.23-25.85 413.41-23 413.41-19.38ZM403.4-17.48L403.4-17.82Q403.43-19.14 403.12-20.36 402.82-21.58 402.12-22.52 401.43-23.46 400.35-24.04 399.28-24.61 397.79-24.66L397.79-24.66 396.81-9.52Q398.28-9.74 399.47-10.49 400.67-11.23 401.54-12.32 402.4-13.4 402.88-14.73 403.36-16.06 403.4-17.48L403.4-17.48ZM443.49-23.54L443.49-23.54Q443.49-21.63 443.16-20.08 442.83-18.53 442.12-17.24 441.42-15.94 440.29-14.84 439.17-13.75 437.58-12.74L437.58-12.74 443.39-2.39 432.41-0.24 428.65-10.64 425.62-10.55 425.18-0.39 414.68-0.39Q414.8-5.96 414.91-11.47 415.02-16.99 415.17-22.56L415.17-22.56Q415.22-25.37 415.27-28.13 415.32-30.88 415.46-33.69L415.46-33.69Q417.17-34.33 418.83-34.74 420.49-35.16 422.16-35.39 423.84-35.62 425.56-35.71 427.28-35.79 429.09-35.79L429.09-35.79Q431.87-35.79 434.47-35.02 437.07-34.25 439.07-32.71 441.07-31.18 442.28-28.88 443.49-26.59 443.49-23.54ZM432.55-22.75L432.55-22.75Q432.55-23.78 432.27-24.63 431.99-25.49 431.44-26.11 430.89-26.73 430.07-27.09 429.26-27.44 428.16-27.44L428.16-27.44Q427.67-27.44 427.21-27.38 426.74-27.32 426.3-27.2L426.3-27.2 425.91-18.12 426.5-18.12Q427.55-18.12 428.63-18.38 429.72-18.65 430.59-19.21 431.45-19.78 432-20.65 432.55-21.53 432.55-22.75ZM466.44-34.96L475.96-2.1 463.85-0.54 462.38-6.05 456.82-6.05 455.6-0.54 443.15-1.76 452.86-34.28 466.44-34.96ZM457.84-13.53L461.51-13.53 459.65-22.02 457.84-13.53ZM515.43-27.15L515.43-27.15Q515.43-25.34 515.26-23.17 515.09-21 514.7-18.68 514.31-16.36 513.69-13.98 513.06-11.6 512.14-9.4 511.21-7.2 509.97-5.29 508.74-3.37 507.14-1.94 505.54-0.51 503.57 0.31 501.59 1.12 499.17 1.12L499.17 1.12Q496.34 1.12 494.25 0.21 492.16-0.71 490.68-2.26 489.19-3.81 488.23-5.87 487.28-7.93 486.74-10.24 486.21-12.55 486-14.95 485.79-17.36 485.79-19.58L485.79-19.58Q485.79-23 486.13-26.4 486.48-29.81 487.11-33.2L487.11-33.2 498.54-32.76Q497.88-28.93 497.4-25.06 496.93-21.19 496.93-17.29L496.93-17.29Q496.93-16.87 496.96-16.05 497-15.23 497.1-14.22 497.19-13.21 497.38-12.15 497.56-11.08 497.88-10.21 498.19-9.33 498.65-8.76 499.1-8.2 499.71-8.2L499.71-8.2Q500.42-8.2 500.98-8.87 501.54-9.55 501.97-10.67 502.39-11.79 502.71-13.26 503.03-14.72 503.25-16.31 503.47-17.9 503.6-19.48 503.74-21.07 503.82-22.44 503.91-23.8 503.93-24.85 503.96-25.9 503.96-26.42L503.96-26.42Q503.96-28.32 503.9-30.21 503.83-32.1 503.71-33.98L503.71-33.98 515.14-33.98Q515.43-30.62 515.43-27.15ZM539.06-34.62L550.58-35.01 548.83-1.9 536.03-0.73 529.2-18.46 528.12-0.39 517.14-0.39 518.02-35.01 530.22-35.6 538.67-18.02 539.06-34.62ZM552.76-33.69L565.74-34.38 563.06-1.12 552.76-0.59 552.76-33.69ZM586.05-34.96L597.28-34.23 588.35-0.24 576.24 0.44 565.25-33.89 576.82-34.96 581.51-14.94 586.05-34.96ZM598.67-35.21L621.18-35.21Q621.04-32.91 620.91-30.66 620.79-28.42 620.6-26.12L620.6-26.12 610.25-25.59 610-22.51 617.28-22.51 616.74-14.94 609.42-14.7 609.17-11.13 615.23-11.13 619.52-11.13Q619.38-8.45 619.22-5.8 619.06-3.15 618.94-0.49L618.94-0.49 597.89 0 598.67-35.21ZM650.62-23.54L650.62-23.54Q650.62-21.63 650.29-20.08 649.96-18.53 649.26-17.24 648.55-15.94 647.43-14.84 646.3-13.75 644.72-12.74L644.72-12.74 650.53-2.39 639.54-0.24 635.78-10.64 632.75-10.55 632.31-0.39 621.81-0.39Q621.94-5.96 622.05-11.47 622.16-16.99 622.3-22.56L622.3-22.56Q622.35-25.37 622.4-28.13 622.45-30.88 622.6-33.69L622.6-33.69Q624.31-34.33 625.97-34.74 627.63-35.16 629.3-35.39 630.97-35.62 632.69-35.71 634.41-35.79 636.22-35.79L636.22-35.79Q639-35.79 641.6-35.02 644.2-34.25 646.2-32.71 648.21-31.18 649.42-28.88 650.62-26.59 650.62-23.54ZM639.69-22.75L639.69-22.75Q639.69-23.78 639.41-24.63 639.12-25.49 638.58-26.11 638.03-26.73 637.21-27.09 636.39-27.44 635.29-27.44L635.29-27.44Q634.8-27.44 634.34-27.38 633.88-27.32 633.44-27.2L633.44-27.2 633.05-18.12 633.63-18.12Q634.68-18.12 635.77-18.38 636.85-18.65 637.72-19.21 638.59-19.78 639.14-20.65 639.69-21.53 639.69-22.75ZM677.31-12.99L677.31-12.99Q677.31-9.64 676.15-7.14 674.99-4.64 672.97-2.98 670.96-1.32 668.26-0.49 665.56 0.34 662.46 0.34L662.46 0.34Q661.27 0.34 659.84 0.02 658.41-0.29 656.94-0.77 655.48-1.25 654.12-1.79 652.77-2.34 651.72-2.83L651.72-2.83 652.79-12.89Q654.87-11.65 657.4-11 659.92-10.35 662.36-10.35L662.36-10.35Q662.83-10.35 663.49-10.39 664.15-10.42 664.74-10.61 665.34-10.79 665.76-11.16 666.17-11.52 666.17-12.21L666.17-12.21Q666.17-12.67 665.88-13 665.59-13.33 665.12-13.54 664.66-13.75 664.07-13.85 663.49-13.96 662.93-14.01 662.36-14.06 661.88-14.06 661.39-14.06 661.09-14.06L661.09-14.06Q659-14.06 657.27-14.79 655.55-15.53 654.32-16.83 653.09-18.14 652.4-19.93 651.72-21.73 651.72-23.83L651.72-23.83Q651.72-26.71 652.88-28.99 654.04-31.27 655.98-32.87 657.92-34.47 660.44-35.33 662.95-36.18 665.64-36.18L665.64-36.18Q666.83-36.18 668.1-36.1 669.37-36.01 670.63-35.79 671.89-35.57 673.08-35.23 674.28-34.89 675.35-34.38L675.35-34.38 674.42-24.46Q672.76-25.02 670.95-25.4 669.13-25.78 667.39-25.78L667.39-25.78Q667.08-25.78 666.58-25.77 666.08-25.76 665.53-25.7 664.98-25.63 664.42-25.51 663.85-25.39 663.41-25.18 662.97-24.98 662.71-24.63 662.44-24.29 662.46-23.83L662.46-23.83Q662.49-23.29 662.86-22.96 663.24-22.63 663.84-22.45 664.44-22.27 665.16-22.19 665.88-22.12 666.59-22.11 667.3-22.09 667.91-22.11 668.52-22.12 668.91-22.07L668.91-22.07Q670.86-21.95 672.42-21.24 673.99-20.53 675.07-19.36 676.16-18.19 676.73-16.56 677.31-14.94 677.31-12.99ZM679.04-33.69L692.02-34.38 689.34-1.12 679.04-0.59 679.04-33.69ZM692.9-34.86L719.51-34.91 719.27-24.56 711.99-24.27 710.14-1.12 699.83-0.59 699.88-23.73 692.61-23.34 692.9-34.86ZM740.51-33.89L752.22-33.06 738.8-14.31 738.16 0.98 726.59 0.98 726.88-14.21 719.9-32.32 732.35-33.89 734.3-23.34 740.51-33.89Z" opacity="1" transform="matrix(1,0,0,1,0,0)" fill="#da0037" class="undefined-text-0" data-fill-palette-color="primary" id="text-0"></path></svg></g></svg></g><g transform="matrix(1,0,0,1,0,22.714823740904833)"><svg viewBox="0 0 395.52 12.250167613104523" height="12.250167613104523" width="395.52"><g transform="matrix(1,0,0,1,0,0)"><svg width="395.52" viewBox="2.5 -35.9 1175.24 36.4" height="12.250167613104523" data-palette-color="#111111"><path d="M15.95 0.5L15.95 0.5Q10.8 0.5 7.88-1.2 4.95-2.9 3.73-6.23 2.5-9.55 2.5-14.35L2.5-14.35 2.5-27.35 2.55-32.4 2.5-35.4 9.6-35.4 9.6-13.85Q9.6-10.35 11-8.18 12.4-6 15.95-6L15.95-6Q19.5-6 20.98-8.03 22.45-10.05 22.45-13.85L22.45-13.85 22.45-35.4 29.4-35.4 29.4-14.35Q29.4-9.65 28.23-6.33 27.05-3 24.13-1.25 21.2 0.5 15.95 0.5ZM60.96 0L53.46 0 53.46-27.35 52.46-32.35 53.46-35.35 59.51-35.35 71.61-17.75 74.01-13.6 74.51-13.6 74.51-35.35 81.86-35.35 81.86-32.35 81.36-27.35 81.36 0 75.61 0 60.96-21.6 60.46-21.6 60.46-18.6 60.96 0ZM112.93 0L105.93 0 105.93-27.4 105.43-32.4 105.93-35.4 112.93-35.4 112.93 0ZM153.44 0L144.69 0 135.69-27.45 134.19-32.4 134.19-35.4 141.59-35.4 148.64-7.6 149.64-7.6 156.59-35.4 163.89-35.4 163.89-32.4 162.39-27.45 153.44 0ZM210.05 0L186.15 0 185.15-3 186.15-8 186.15-35.4 208.85-35.4 211.35-33.9 208.55-28.4 203.55-28.9 193.05-28.9 193.05-21.15 206.55-21.15 206.55-14.9 201.65-14.9 193.05-15.4 193.05-6.5 209.05-6.5 213-3.2 210.05 0ZM241.57 0L234.57 0 234.57-27.35 233.57-32.4 234.57-35.4 246.57-35.4Q250.22-35.4 253.14-34.27 256.07-33.15 257.79-30.48 259.52-27.8 259.52-23.1L259.52-23.1Q259.52-18.65 257.84-16 256.17-13.35 253.22-12.05L253.22-12.05 254.67-10.75 259.12-5.55 261.97-3 261.97 0 252.72 0 245.72-10.65 241.57-10.65 241.57-8.05 242.07-3.05 241.57 0ZM241.07-28.9L241.57-17 246.47-17Q249.77-17 250.97-18.73 252.17-20.45 252.17-23.1L252.17-23.1Q252.17-25.9 250.89-27.4 249.62-28.9 246.27-28.9L246.27-28.9 241.07-28.9ZM293.33 0.5L293.33 0.5Q289.48 0.5 286.78-0.53 284.08-1.55 282.73-2.7L282.73-2.7 282.73-9.6Q284.48-8.6 287.41-7.5 290.33-6.4 293.88-6.4L293.88-6.4Q296.18-6.4 297.31-7.3 298.43-8.2 298.43-9.75L298.43-9.75Q298.43-11.15 297.53-12.05 296.63-12.95 294.83-13.7 293.03-14.45 290.23-15.45L290.23-15.45Q286.23-16.9 284.03-19.2 281.83-21.5 281.83-25.4L281.83-25.4Q281.83-28.15 283.06-30.55 284.28-32.95 286.91-34.43 289.53-35.9 293.63-35.9L293.63-35.9Q295.23-35.9 296.81-35.77 298.38-35.65 299.48-35.45L299.48-35.45 305.13-31.3 302.63-26.2 293.48-29.45Q291.68-29.45 290.51-28.58 289.33-27.7 289.33-26.1L289.33-26.1Q289.33-24.1 291.01-23.05 292.68-22 295.73-21L295.73-21Q301.53-19.1 303.88-16.43 306.23-13.75 306.23-10.15L306.23-10.15Q306.23-7.25 305.03-4.83 303.83-2.4 301.01-0.95 298.18 0.5 293.33 0.5ZM335.9 0L328.9 0 328.9-27.4 328.4-32.4 328.9-35.4 335.9-35.4 335.9 0ZM375.71 0L368.71 0 368.71-29 357.71-28.5 357.71-35.4 386.96-35.4 386.96-28.5 375.71-29 375.71-8 376.26-3 375.71 0ZM424.87 0L417.82 0 417.82-15 406.47-32.4 406.47-35.4 414.87-35.4 420.87-22.6 421.87-22.6 427.82-35.4 436.32-35.4 436.32-32.4 424.57-14.7 424.87-9.65 424.87 0ZM505.25 0L495.35 0 486.35-27.45 484.85-32.4 484.85-35.4 492.3-35.4 499.55-8.6 500.55-8.6 505.85-35.4 515.95-35.4 520.15-14.95 521.15-8.6 522.15-8.6 529.35-35.4 536.75-35.4 536.75-32.4 535.25-27.45 526.35 0 516.45 0 511.25-27.6 510.2-27.6 509.15-20.45 505.25 0ZM565.51 0L558.51 0 558.51-27.4 558.01-32.4 558.51-35.4 565.51-35.4 565.51 0ZM605.33 0L598.33 0 598.33-29 587.33-28.5 587.33-35.4 616.58-35.4 616.58-28.5 605.33-29 605.33-8 605.88-3 605.33 0ZM646.39 0L638.89 0 638.89-27.35 638.39-32.35 638.89-35.4 645.89-35.4 645.89-20.8 660.34-20.8 660.34-35.4 667.34-35.4 667.34-16.6 667.84-13.15 667.84 0 660.34 0 660.34-14.25 645.89-14.25 645.89-10.2 646.39 0ZM732.87 0L721.97 0 721.97-27.35 720.97-32.35 721.97-35.4 732.87-35.4Q736.47-35.4 739.79-34.73 743.12-34.05 745.74-32.2 748.37-30.35 749.89-26.9 751.42-23.45 751.42-17.95L751.42-17.95Q751.42-12.45 749.87-8.93 748.32-5.4 745.67-3.45 743.02-1.5 739.69-0.75 736.37 0 732.87 0L732.87 0ZM729.07-28.9L729.07-6.5 734.37-6.5Q739.57-6.5 741.77-9.58 743.97-12.65 743.97-17.95L743.97-17.95Q743.97-23.25 741.74-26.08 739.52-28.9 734.37-28.9L734.37-28.9 729.07-28.9ZM781.68 0L774.68 0 774.68-27.4 774.18-32.4 774.68-35.4 781.68-35.4 781.68 0ZM813.25 0L806.25 0 806.25-27.3 805.25-32.4 806.25-35.4 829-35.4 831.5-33.9 829.2-28.4 824.7-28.9 812.75-28.9 813.25-21.15 826.7-21.15 826.7-14.9 822.65-14.9 813.25-15.4 813.25-7.95 813.8-2.95 813.25 0ZM860.46 0L853.46 0 853.46-27.3 852.46-32.4 853.46-35.4 876.21-35.4 878.71-33.9 876.41-28.4 871.91-28.9 859.96-28.9 860.46-21.15 873.91-21.15 873.91-14.9 869.86-14.9 860.46-15.4 860.46-7.95 861.01-2.95 860.46 0ZM924.57 0L900.67 0 899.67-3 900.67-8 900.67-35.4 923.37-35.4 925.87-33.9 923.07-28.4 918.07-28.9 907.57-28.9 907.57-21.15 921.07-21.15 921.07-14.9 916.17-14.9 907.57-15.4 907.57-6.5 923.57-6.5 927.52-3.2 924.57 0ZM956.09 0L949.09 0 949.09-27.35 948.09-32.4 949.09-35.4 961.09-35.4Q964.74-35.4 967.66-34.27 970.59-33.15 972.31-30.48 974.04-27.8 974.04-23.1L974.04-23.1Q974.04-18.65 972.36-16 970.69-13.35 967.74-12.05L967.74-12.05 969.19-10.75 973.64-5.55 976.49-3 976.49 0 967.24 0 960.24-10.65 956.09-10.65 956.09-8.05 956.59-3.05 956.09 0ZM955.59-28.9L956.09-17 960.99-17Q964.29-17 965.49-18.73 966.69-20.45 966.69-23.1L966.69-23.1Q966.69-25.9 965.41-27.4 964.14-28.9 960.79-28.9L960.79-28.9 955.59-28.9ZM1022.45 0L998.55 0 997.55-3 998.55-8 998.55-35.4 1021.25-35.4 1023.75-33.9 1020.95-28.4 1015.95-28.9 1005.45-28.9 1005.45-21.15 1018.95-21.15 1018.95-14.9 1014.05-14.9 1005.45-15.4 1005.45-6.5 1021.45-6.5 1025.4-3.2 1022.45 0ZM1054.47 0L1046.97 0 1046.97-27.35 1045.97-32.35 1046.97-35.35 1053.02-35.35 1065.12-17.75 1067.52-13.6 1068.02-13.6 1068.02-35.35 1075.37-35.35 1075.37-32.35 1074.87-27.35 1074.87 0 1069.12 0 1054.47-21.6 1053.97-21.6 1053.97-18.6 1054.47 0ZM1114.98 0.5L1114.98 0.5Q1112.03 0.5 1109.05-0.35 1106.08-1.2 1103.6-3.23 1101.13-5.25 1099.63-8.78 1098.13-12.3 1098.13-17.7L1098.13-17.7Q1098.13-23.15 1100.25-27.23 1102.38-31.3 1106.08-33.6 1109.78-35.9 1114.48-35.9L1114.48-35.9Q1116.73-35.9 1118.8-35.5 1120.88-35.1 1121.98-34.6L1121.98-34.6 1127.53-29.55 1124.03-24.3 1115.48-28.7Q1112.68-28.7 1110.43-27.35 1108.18-26 1106.85-23.53 1105.53-21.05 1105.53-17.7L1105.53-17.7Q1105.53-13.85 1106.9-11.35 1108.28-8.85 1110.68-7.63 1113.08-6.4 1116.03-6.4L1116.03-6.4Q1119.03-6.4 1121.18-6.93 1123.33-7.45 1124.78-8.13 1126.23-8.8 1126.98-9.3L1126.98-9.3 1126.98-2.5Q1125.58-1.55 1122.7-0.53 1119.83 0.5 1114.98 0.5ZM1174.79 0L1150.89 0 1149.89-3 1150.89-8 1150.89-35.4 1173.59-35.4 1176.09-33.9 1173.29-28.4 1168.29-28.9 1157.79-28.9 1157.79-21.15 1171.29-21.15 1171.29-14.9 1166.39-14.9 1157.79-15.4 1157.79-6.5 1173.79-6.5 1177.74-3.2 1174.79 0Z" opacity="1" transform="matrix(1,0,0,1,0,0)" fill="#111111" class="undefined-text-1" data-fill-palette-color="secondary" id="text-1"></path></svg></g></svg></g></svg></g></svg></g></svg></g></svg></g></svg></g></svg></g><defs></defs></svg><rect width="395.52" height="247.2" fill="none" stroke="none" visibility="hidden"></rect></g></svg></g></svg>